<?xml version="1.0" encoding="UTF-8" standalone="no"?><!DOCTYPE svg PUBLIC "-//W3C//DTD SVG 1.1//EN" "http://www.w3.org/Graphics/SVG/1.1/DTD/svg11.dtd"><svg width="100%" height="100%" viewBox="0 0 279 95" version="1.1" xmlns="http://www.w3.org/2000/svg" xmlns:xlink="http://www.w3.org/1999/xlink" xml:space="preserve" xmlns:serif="http://www.serif.com/" style="fill-rule:evenodd;clip-rule:evenodd;stroke-linejoin:round;stroke-miterlimit:2;"><g><g><g><rect x="268.174" y="44.13" width="0.795" height="10.365" style="fill:#8ADB55;"/><path d="M270.478,3.865c0,-1.686 -0.639,-3.141 -1.627,-3.705l-0.279,-0.16l-0.278,0.16c-0.989,0.564 -1.628,2.019 -1.628,3.705c0.001,1.603 0.609,2.908 1.628,3.49l0.278,0.159l0.279,-0.159c1.018,-0.582 1.627,-1.887 1.627,-3.49Z" style="fill:#8ADB55;"/><path d="M269.264,11.291c2.336,-2.334 4.899,-0.845 4.899,-5.818l0,-0.969c-0.519,0.508 -1.004,0.76 -1.683,1.011c-2.639,0.975 -3.589,2.957 -3.216,5.776Z" style="fill:#8ADB55;"/><path d="M267.879,11.291c0.373,-2.819 -0.576,-4.801 -3.216,-5.776c-0.679,-0.251 -1.164,-0.503 -1.683,-1.011l0,0.969c0,4.973 2.564,3.484 4.899,5.818Z" style="fill:#8ADB55;"/><path d="M269.22,17.161c2.529,-2.528 5.305,-0.916 5.305,-6.301l-0,-1.048c-0.562,0.55 -1.087,0.822 -1.823,1.094c-2.858,1.056 -3.886,3.202 -3.482,6.255Z" style="fill:#8ADB55;"/><path d="M267.924,17.161c0.404,-3.053 -0.624,-5.199 -3.482,-6.255c-0.735,-0.272 -1.26,-0.544 -1.822,-1.094l-0,1.048c-0,5.385 2.775,3.773 5.304,6.301Z" style="fill:#8ADB55;"/><path d="M269.183,23.307c2.722,-2.721 5.71,-0.985 5.71,-6.782l0,-1.129c-0.604,0.592 -1.17,0.885 -1.961,1.178c-3.077,1.137 -4.184,3.447 -3.749,6.733Z" style="fill:#8ADB55;"/><path d="M267.961,23.307c0.435,-3.286 -0.672,-5.596 -3.748,-6.733c-0.792,-0.293 -1.357,-0.586 -1.962,-1.178l0,1.129c0,5.797 2.988,4.061 5.71,6.782Z" style="fill:#8ADB55;"/><path d="M269.155,29.76c2.915,-2.915 6.116,-1.055 6.116,-7.264l-0,-1.21c-0.648,0.635 -1.254,0.949 -2.101,1.262c-3.296,1.218 -4.481,3.692 -4.015,7.212Z" style="fill:#8ADB55;"/><path d="M267.99,29.76c0.465,-3.52 -0.72,-5.994 -4.016,-7.212c-0.847,-0.313 -1.453,-0.627 -2.1,-1.262l-0,1.21c-0,6.209 3.2,4.349 6.116,7.264Z" style="fill:#8ADB55;"/><path d="M269.135,36.552c3.109,-3.108 6.522,-1.125 6.522,-7.746l0,-1.289c-0.69,0.677 -1.336,1.011 -2.24,1.345c-3.514,1.299 -4.778,3.937 -4.282,7.69Z" style="fill:#8ADB55;"/><path d="M268.009,36.552c0.496,-3.753 -0.768,-6.391 -4.282,-7.69c-0.903,-0.334 -1.549,-0.668 -2.24,-1.345l0,1.289c0,6.621 3.413,4.638 6.522,7.746Z" style="fill:#8ADB55;"/><path d="M273.674,35.556c-3.732,1.379 -5.075,4.182 -4.547,8.168c3.302,-3.301 6.927,-1.195 6.927,-8.227l0,-1.37c-0.733,0.719 -1.419,1.074 -2.38,1.429Z" style="fill:#8ADB55;"/><path d="M263.469,35.556c-0.96,-0.355 -1.646,-0.71 -2.379,-1.429l-0,1.37c-0,7.032 3.624,4.926 6.927,8.227c0.527,-3.986 -0.816,-6.789 -4.548,-8.168Z" style="fill:#8ADB55;"/></g></g><g><g><rect x="251.272" y="44.13" width="0.795" height="10.365" style="fill:#8ADB55;"/><path d="M253.576,3.865c-0,-1.686 -0.639,-3.141 -1.628,-3.705l-0.278,-0.16l-0.279,0.16c-0.988,0.564 -1.627,2.019 -1.627,3.705c0,1.603 0.609,2.908 1.627,3.49l0.279,0.159l0.278,-0.159c1.019,-0.582 1.627,-1.887 1.628,-3.49Z" style="fill:#8ADB55;"/><path d="M252.362,11.291c2.336,-2.334 4.899,-0.845 4.899,-5.818l0,-0.969c-0.519,0.508 -1.004,0.76 -1.683,1.011c-2.639,0.975 -3.589,2.957 -3.216,5.776Z" style="fill:#8ADB55;"/><path d="M250.977,11.291c0.373,-2.819 -0.576,-4.801 -3.216,-5.776c-0.679,-0.251 -1.164,-0.503 -1.683,-1.011l0,0.969c0,4.973 2.564,3.484 4.899,5.818Z" style="fill:#8ADB55;"/><path d="M252.318,17.161c2.529,-2.528 5.305,-0.916 5.305,-6.301l-0,-1.048c-0.562,0.55 -1.087,0.822 -1.823,1.094c-2.858,1.056 -3.886,3.202 -3.482,6.255Z" style="fill:#8ADB55;"/><path d="M251.022,17.161c0.404,-3.053 -0.624,-5.199 -3.482,-6.255c-0.735,-0.272 -1.261,-0.544 -1.823,-1.094l0,1.048c0,5.385 2.776,3.773 5.305,6.301Z" style="fill:#8ADB55;"/><path d="M252.281,23.307c2.722,-2.721 5.71,-0.985 5.71,-6.782l0,-1.129c-0.604,0.592 -1.17,0.885 -1.961,1.178c-3.077,1.137 -4.184,3.447 -3.749,6.733Z" style="fill:#8ADB55;"/><path d="M251.059,23.307c0.435,-3.286 -0.672,-5.596 -3.749,-6.733c-0.791,-0.293 -1.356,-0.586 -1.961,-1.178l-0,1.129c-0,5.797 2.988,4.061 5.71,6.782Z" style="fill:#8ADB55;"/><path d="M252.252,29.76c2.916,-2.915 6.117,-1.055 6.117,-7.264l-0,-1.21c-0.648,0.635 -1.254,0.949 -2.101,1.262c-3.296,1.218 -4.481,3.692 -4.016,7.212Z" style="fill:#8ADB55;"/><path d="M251.088,29.76c0.465,-3.52 -0.72,-5.994 -4.016,-7.212c-0.847,-0.313 -1.453,-0.627 -2.1,-1.262l-0,1.21c-0,6.209 3.2,4.349 6.116,7.264Z" style="fill:#8ADB55;"/><path d="M252.233,36.552c3.109,-3.108 6.522,-1.125 6.522,-7.746l0,-1.289c-0.691,0.677 -1.336,1.011 -2.24,1.345c-3.514,1.299 -4.778,3.937 -4.282,7.69Z" style="fill:#8ADB55;"/><path d="M251.107,36.552c0.496,-3.753 -0.768,-6.391 -4.282,-7.69c-0.903,-0.334 -1.549,-0.668 -2.24,-1.345l0,1.289c0,6.621 3.413,4.638 6.522,7.746Z" style="fill:#8ADB55;"/><path d="M256.772,35.556c-3.732,1.379 -5.075,4.182 -4.547,8.168c3.302,-3.301 6.927,-1.195 6.927,-8.227l0,-1.37c-0.734,0.719 -1.42,1.074 -2.38,1.429Z" style="fill:#8ADB55;"/><path d="M246.567,35.556c-0.96,-0.355 -1.646,-0.71 -2.379,-1.429l-0,1.37c-0,7.032 3.624,4.926 6.927,8.227c0.527,-3.986 -0.816,-6.789 -4.548,-8.168Z" style="fill:#8ADB55;"/></g></g><g><g><rect x="234.603" y="44.13" width="0.795" height="10.365" style="fill:#8ADB55;"/><path d="M236.907,3.865c-0,-1.686 -0.639,-3.141 -1.628,-3.705l-0.278,-0.16l-0.279,0.16c-0.989,0.564 -1.627,2.019 -1.627,3.705c0,1.603 0.608,2.908 1.627,3.49l0.279,0.159l0.278,-0.159c1.019,-0.582 1.627,-1.887 1.628,-3.49Z" style="fill:#8ADB55;"/><path d="M235.693,11.291c2.335,-2.334 4.899,-0.845 4.899,-5.818l0,-0.969c-0.519,0.508 -1.004,0.76 -1.683,1.011c-2.64,0.975 -3.589,2.957 -3.216,5.776Z" style="fill:#8ADB55;"/><path d="M234.308,11.291c0.373,-2.819 -0.577,-4.801 -3.216,-5.776c-0.679,-0.251 -1.164,-0.503 -1.683,-1.011l0,0.969c0,4.973 2.564,3.484 4.899,5.818Z" style="fill:#8ADB55;"/><path d="M235.649,17.161c2.529,-2.528 5.304,-0.916 5.304,-6.301l0,-1.048c-0.562,0.55 -1.087,0.822 -1.822,1.094c-2.858,1.056 -3.886,3.202 -3.482,6.255Z" style="fill:#8ADB55;"/><path d="M234.353,17.161c0.404,-3.053 -0.624,-5.199 -3.482,-6.255c-0.736,-0.272 -1.261,-0.544 -1.823,-1.094l0,1.048c0,5.385 2.776,3.773 5.305,6.301Z" style="fill:#8ADB55;"/><path d="M235.612,23.307c2.722,-2.721 5.71,-0.985 5.71,-6.782l-0,-1.129c-0.605,0.592 -1.17,0.885 -1.962,1.178c-3.077,1.137 -4.183,3.447 -3.748,6.733Z" style="fill:#8ADB55;"/><path d="M234.39,23.307c0.435,-3.286 -0.672,-5.596 -3.749,-6.733c-0.791,-0.293 -1.357,-0.586 -1.961,-1.178l-0,1.129c-0,5.797 2.988,4.061 5.71,6.782Z" style="fill:#8ADB55;"/><path d="M235.583,29.76c2.916,-2.915 6.116,-1.055 6.116,-7.264l0,-1.21c-0.648,0.635 -1.253,0.949 -2.1,1.262c-3.296,1.218 -4.482,3.692 -4.016,7.212Z" style="fill:#8ADB55;"/><path d="M234.418,29.76c0.466,-3.52 -0.719,-5.994 -4.015,-7.212c-0.847,-0.313 -1.453,-0.627 -2.101,-1.262l0,1.21c0,6.209 3.2,4.349 6.116,7.264Z" style="fill:#8ADB55;"/><path d="M235.564,36.552c3.109,-3.108 6.522,-1.125 6.522,-7.746l-0,-1.289c-0.691,0.677 -1.337,1.011 -2.24,1.345c-3.514,1.299 -4.779,3.937 -4.282,7.69Z" style="fill:#8ADB55;"/><path d="M234.438,36.552c0.496,-3.753 -0.768,-6.391 -4.282,-7.69c-0.904,-0.334 -1.55,-0.668 -2.24,-1.345l-0,1.289c-0,6.621 3.412,4.638 6.522,7.746Z" style="fill:#8ADB55;"/><path d="M240.103,35.556c-3.732,1.379 -5.075,4.182 -4.548,8.168c3.303,-3.301 6.928,-1.195 6.928,-8.227l-0,-1.37c-0.734,0.719 -1.42,1.074 -2.38,1.429Z" style="fill:#8ADB55;"/><path d="M229.898,35.556c-0.96,-0.355 -1.646,-0.71 -2.38,-1.429l0,1.37c0,7.032 3.625,4.926 6.927,8.227c0.528,-3.986 -0.815,-6.789 -4.547,-8.168Z" style="fill:#8ADB55;"/></g></g><g><path d="M47.038,78.087l-3.095,-0l0,12.378c-1.815,1.031 -4.466,1.95 -7.953,2.754c-3.486,0.805 -7.251,1.207 -11.295,1.207c-7.716,0 -13.761,-2.032 -18.134,-6.096c-4.374,-4.065 -6.561,-10.347 -6.561,-18.846c-0,-8.707 2.177,-15.04 6.53,-19.001c4.353,-3.961 10.573,-5.942 18.66,-5.942c3.92,0 7.592,0.413 11.017,1.238c3.425,0.825 6.003,1.754 7.736,2.785l0,14.792l-15.473,0l0,-2.909c0,-1.733 -0.361,-2.981 -1.083,-3.744c-0.722,-0.763 -1.867,-1.145 -3.435,-1.145c-1.568,-0 -2.713,0.382 -3.435,1.145c-0.722,0.763 -1.083,2.011 -1.083,3.744l0,18.073c0,1.733 0.361,2.981 1.083,3.744c0.722,0.764 1.867,1.145 3.435,1.145c1.568,0 2.713,-0.381 3.435,-1.145c0.722,-0.763 1.083,-2.011 1.083,-3.744l0,-0.433l-3.342,-0l0,-9.222l21.91,-0l-0,9.222Z" style="fill:#fff;fill-rule:nonzero;"/><path d="M84.73,83.409l0,10.151l-16.339,-0l-0,-4.209c-0.908,1.32 -2.177,2.496 -3.807,3.528c-1.63,1.031 -3.62,1.547 -5.972,1.547c-3.095,0 -5.529,-0.825 -7.304,-2.476c-1.774,-1.65 -2.661,-3.981 -2.661,-6.993c0,-7.799 6.623,-11.801 19.867,-12.007c-0.123,-1.403 -0.66,-2.363 -1.609,-2.878c-0.949,-0.516 -2.558,-0.774 -4.827,-0.774c-1.857,-0 -3.848,0.196 -5.973,0.588c-2.125,0.392 -4.074,0.918 -5.849,1.578l0,-11.388c2.187,-0.536 4.56,-0.97 7.118,-1.3c2.558,-0.33 5.054,-0.495 7.489,-0.495c6.148,0 10.542,1.114 13.183,3.342c2.641,2.228 3.961,5.674 3.961,10.336l-0,11.45l2.723,0Zm-16.339,-4.332c-1.857,-0 -3.291,0.247 -4.302,0.743c-1.011,0.495 -1.516,1.32 -1.516,2.475c-0,0.702 0.216,1.269 0.65,1.702c0.433,0.433 1.042,0.65 1.825,0.65c1.073,0 1.899,-0.454 2.476,-1.362c0.578,-0.907 0.867,-2.186 0.867,-3.837l-0,-0.371Z" style="fill:#fff;fill-rule:nonzero;"/><path d="M113.139,58.281c0.825,0 1.609,0.083 2.351,0.248c0.743,0.165 1.362,0.371 1.857,0.619l0,11.821c-1.691,-0.701 -3.507,-1.052 -5.446,-1.052c-2.6,-0 -4.601,0.681 -6.004,2.042c-1.403,1.362 -2.104,3.384 -2.104,6.066l-0,5.384l5.57,0l0,10.151l-22.529,-0l0,-10.151l2.724,0l-0,-14.111l-2.724,-0l0,-10.15l16.959,-0l-0,4.518c1.155,-1.733 2.476,-3.064 3.961,-3.992c1.485,-0.929 3.28,-1.393 5.385,-1.393Z" style="fill:#fff;fill-rule:nonzero;"/><path d="M131.521,94.426c-4.209,0 -7.376,-1.568 -9.501,-4.704c-2.125,-3.136 -3.187,-7.592 -3.187,-13.368c-0,-5.777 1.062,-10.233 3.187,-13.369c2.125,-3.136 5.292,-4.704 9.501,-4.704c2.104,0 3.971,0.516 5.601,1.547c1.63,1.032 2.96,2.208 3.992,3.528l-0,-7.798l-3.652,-0l0,-10.15l17.887,-0l-0,38.001l2.723,0l0,10.151l-16.958,-0l-0,-4.209c-1.032,1.32 -2.362,2.496 -3.992,3.528c-1.63,1.031 -3.497,1.547 -5.601,1.547Zm6.003,-11.017c1.197,0 2.094,-0.32 2.692,-0.959c0.599,-0.64 0.898,-1.64 0.898,-3.002l-0,-6.189c-0,-1.362 -0.299,-2.362 -0.898,-3.002c-0.598,-0.639 -1.495,-0.959 -2.692,-0.959c-1.197,-0 -2.094,0.32 -2.692,0.959c-0.599,0.64 -0.898,1.64 -0.898,3.002l0,6.189c0,1.362 0.299,2.362 0.898,3.002c0.598,0.639 1.495,0.959 2.692,0.959Z" style="fill:#fff;fill-rule:nonzero;"/><path d="M178.497,94.426c-5.86,0 -10.44,-1.537 -13.74,-4.611c-3.301,-3.074 -4.952,-7.561 -4.952,-13.461c0,-5.901 1.651,-10.388 4.952,-13.462c3.3,-3.074 7.88,-4.611 13.74,-4.611c5.817,0 10.016,1.516 12.595,4.549c2.578,3.033 3.868,6.798 3.868,11.295l-0,4.457l-20.053,-0l-0,0.371c-0,1.527 0.454,2.651 1.361,3.373c0.908,0.722 2.414,1.083 4.519,1.083c2.516,0 4.91,-0.185 7.179,-0.557c2.269,-0.371 4.25,-0.846 5.942,-1.423l-0,9.902c-1.445,0.784 -3.559,1.496 -6.344,2.136c-2.785,0.639 -5.808,0.959 -9.067,0.959Zm3.589,-22.652l0,-0.743c0,-1.403 -0.299,-2.414 -0.897,-3.033c-0.598,-0.619 -1.496,-0.928 -2.692,-0.928c-1.197,-0 -2.094,0.32 -2.693,0.959c-0.598,0.64 -0.897,1.64 -0.897,3.002l-0,0.743l7.179,-0Z" style="fill:#fff;fill-rule:nonzero;"/><path d="M226.231,53.997l16.679,0l-0,8.34l-2.543,-0l0,31.223l-14.289,-0l-14.899,-22.934l-0,14.594l2.441,-0l-0,8.34l-16.68,-0l0,-8.34l2.543,-0l-0,-22.883l-2.543,-0l0,-8.34l18.358,0l13.374,20.392l-0,-12.052l-2.441,-0l-0,-8.34Z" style="fill:#fff;fill-rule:nonzero;"/><path d="M268.03,81.05l10.12,0l-0,12.51l-33.613,-0l0,-7.323l15.662,-23.9l-5.288,-0l-0,4.17l-10.12,-0l0,-12.51l32.545,0l0,7.323l-15.611,23.9l6.305,-0l0,-4.17Z" style="fill:#fff;fill-rule:nonzero;"/></g></g></svg>