<?xml version="1.0" encoding="UTF-8" standalone="no"?><!DOCTYPE svg PUBLIC "-//W3C//DTD SVG 1.1//EN" "http://www.w3.org/Graphics/SVG/1.1/DTD/svg11.dtd"><svg width="100%" height="100%" viewBox="0 0 313 116" version="1.1" xmlns="http://www.w3.org/2000/svg" xmlns:xlink="http://www.w3.org/1999/xlink" xml:space="preserve" xmlns:serif="http://www.serif.com/" style="fill-rule:evenodd;clip-rule:evenodd;stroke-linejoin:round;stroke-miterlimit:2;"><rect x="0" y="0" width="312.811" height="115.093" style="fill:#a0a603;"/><g><g><path d="M60.347,92.752l-2.913,0l0,11.654c-1.709,0.971 -4.205,1.836 -7.488,2.593c-3.282,0.758 -6.827,1.136 -10.634,1.136c-7.264,0 -12.955,-1.913 -17.073,-5.739c-4.117,-3.827 -6.176,-9.741 -6.176,-17.743c-0,-8.197 2.049,-14.16 6.147,-17.889c4.099,-3.729 9.955,-5.594 17.568,-5.594c3.691,0 7.148,0.389 10.372,1.166c3.225,0.777 5.652,1.651 7.284,2.622l0,13.926l-14.567,0l-0,-2.738c-0,-1.632 -0.34,-2.807 -1.02,-3.526c-0.68,-0.718 -1.758,-1.078 -3.234,-1.078c-1.476,0 -2.554,0.36 -3.234,1.078c-0.68,0.719 -1.02,1.894 -1.02,3.526l0,17.014c0,1.632 0.34,2.807 1.02,3.525c0.68,0.719 1.758,1.078 3.234,1.078c1.476,0 2.554,-0.359 3.234,-1.078c0.68,-0.718 1.02,-1.893 1.02,-3.525l-0,-0.408l-3.147,0l0,-8.682l20.627,0l0,8.682Z" style="fill:#fff;fill-rule:nonzero;"/><path d="M95.833,97.763l0,9.557l-15.383,-0l0,-3.963c-0.854,1.243 -2.049,2.35 -3.583,3.322c-1.535,0.971 -3.409,1.456 -5.623,1.456c-2.914,0 -5.206,-0.777 -6.876,-2.33c-1.67,-1.554 -2.506,-3.749 -2.506,-6.585c0,-7.342 6.235,-11.11 18.705,-11.304c-0.117,-1.321 -0.622,-2.224 -1.515,-2.71c-0.894,-0.485 -2.409,-0.728 -4.545,-0.728c-1.748,0 -3.623,0.185 -5.623,0.554c-2.001,0.369 -3.836,0.864 -5.507,1.485l0,-10.721c2.059,-0.505 4.293,-0.913 6.701,-1.224c2.409,-0.311 4.759,-0.466 7.051,-0.466c5.788,0 9.925,1.049 12.411,3.147c2.487,2.097 3.73,5.341 3.73,9.731l-0,10.779l2.563,0Zm-15.383,-4.078c-1.748,-0 -3.098,0.233 -4.049,0.699c-0.952,0.466 -1.428,1.243 -1.428,2.331c0,0.66 0.204,1.194 0.612,1.602c0.408,0.408 0.981,0.612 1.719,0.612c1.01,-0 1.787,-0.428 2.331,-1.282c0.543,-0.855 0.815,-2.059 0.815,-3.613l0,-0.349Z" style="fill:#fff;fill-rule:nonzero;"/><path d="M122.579,74.106c0.777,0 1.515,0.078 2.214,0.233c0.699,0.156 1.282,0.35 1.748,0.583l0,11.129c-1.592,-0.66 -3.302,-0.99 -5.127,-0.99c-2.448,-0 -4.332,0.641 -5.653,1.923c-1.32,1.282 -1.981,3.185 -1.981,5.71l0,5.069l5.245,0l-0,9.557l-21.21,-0l-0,-9.557l2.563,0l0,-13.285l-2.563,0l-0,-9.556l15.965,-0l0,4.254c1.088,-1.632 2.331,-2.885 3.73,-3.759c1.398,-0.874 3.088,-1.311 5.069,-1.311Z" style="fill:#fff;fill-rule:nonzero;"/><path d="M139.885,108.135c-3.962,0 -6.944,-1.476 -8.944,-4.428c-2.001,-2.952 -3.001,-7.148 -3.001,-12.586c-0,-5.439 1,-9.634 3.001,-12.586c2,-2.953 4.982,-4.429 8.944,-4.429c1.981,0 3.739,0.486 5.273,1.457c1.535,0.971 2.788,2.078 3.759,3.321l-0,-7.342l-3.438,0l-0,-9.556l16.84,0l-0,35.777l2.563,0l0,9.557l-15.965,-0l-0,-3.963c-0.971,1.243 -2.224,2.35 -3.759,3.322c-1.534,0.971 -3.292,1.456 -5.273,1.456Zm5.652,-10.372c1.127,0 1.971,-0.301 2.535,-0.903c0.563,-0.602 0.845,-1.544 0.845,-2.826l-0,-5.827c-0,-1.282 -0.282,-2.224 -0.845,-2.826c-0.564,-0.602 -1.408,-0.903 -2.535,-0.903c-1.126,0 -1.971,0.301 -2.535,0.903c-0.563,0.602 -0.845,1.544 -0.845,2.826l0,5.827c0,1.282 0.282,2.224 0.845,2.826c0.564,0.602 1.409,0.903 2.535,0.903Z" style="fill:#fff;fill-rule:nonzero;"/><path d="M184.111,108.135c-5.516,0 -9.828,-1.447 -12.935,-4.341c-3.108,-2.894 -4.662,-7.118 -4.662,-12.673c-0,-5.555 1.554,-9.78 4.662,-12.674c3.107,-2.894 7.419,-4.341 12.935,-4.341c5.478,0 9.43,1.428 11.858,4.283c2.428,2.855 3.642,6.4 3.642,10.634l-0,4.195l-18.879,0l-0,0.35c-0,1.437 0.427,2.496 1.282,3.176c0.854,0.679 2.272,1.019 4.253,1.019c2.37,0 4.623,-0.174 6.759,-0.524c2.137,-0.35 4.002,-0.796 5.594,-1.34l0,9.323c-1.359,0.738 -3.35,1.408 -5.972,2.01c-2.622,0.602 -5.468,0.903 -8.537,0.903Zm3.38,-21.326l-0,-0.699c-0,-1.321 -0.282,-2.273 -0.845,-2.856c-0.563,-0.582 -1.408,-0.874 -2.535,-0.874c-1.126,0 -1.971,0.301 -2.534,0.903c-0.564,0.603 -0.845,1.545 -0.845,2.827l-0,0.699l6.759,-0Z" style="fill:#fff;fill-rule:nonzero;"/><path d="M235.039,61.986l19.112,0l-0,9.556l-2.914,0l0,35.778l-16.373,-0l-17.073,-26.28l-0,16.723l2.797,0l-0,9.557l-19.113,-0l0,-9.557l2.914,0l-0,-26.221l-2.914,0l0,-9.556l21.036,0l15.324,23.366l0,-13.81l-2.796,0l-0,-9.556Z" style="fill:#fff;fill-rule:nonzero;"/><path d="M282.936,92.985l11.595,0l0,14.335l-38.516,-0l0,-8.391l17.947,-27.387l-6.06,0l0,4.778l-11.595,0l-0,-14.334l37.292,0l0,8.391l-17.889,27.386l7.226,0l-0,-4.778Z" style="fill:#fff;fill-rule:nonzero;"/></g><g><g><rect x="290.053" y="55.608" width="0.7" height="9.117" style="fill:#fff;"/><path d="M292.079,20.189c0,-1.483 -0.562,-2.762 -1.431,-3.259l-0.245,-0.14l-0.245,0.14c-0.87,0.497 -1.432,1.776 -1.432,3.259c0.001,1.411 0.536,2.559 1.432,3.071l0.245,0.14l0.245,-0.14c0.896,-0.512 1.431,-1.66 1.431,-3.071Z" style="fill:#fff;"/><path d="M291.012,26.722c2.054,-2.053 4.309,-0.743 4.309,-5.118l0,-0.852c-0.456,0.447 -0.883,0.668 -1.48,0.889c-2.322,0.858 -3.158,2.601 -2.829,5.081Z" style="fill:#fff;"/><path d="M289.793,26.722c0.329,-2.48 -0.507,-4.223 -2.829,-5.081c-0.597,-0.221 -1.023,-0.442 -1.48,-0.889l0,0.852c0,4.375 2.255,3.065 4.309,5.118Z" style="fill:#fff;"/><path d="M290.973,31.885c2.224,-2.224 4.666,-0.805 4.666,-5.542l-0,-0.923c-0.494,0.484 -0.956,0.724 -1.603,0.963c-2.514,0.929 -3.419,2.817 -3.063,5.502Z" style="fill:#fff;"/><path d="M289.833,31.885c0.355,-2.685 -0.549,-4.573 -3.063,-5.502c-0.647,-0.239 -1.109,-0.479 -1.603,-0.963l-0,0.923c-0,4.737 2.441,3.318 4.666,5.542Z" style="fill:#fff;"/><path d="M290.94,37.292c2.395,-2.394 5.023,-0.867 5.023,-5.966l0,-0.993c-0.532,0.521 -1.029,0.779 -1.725,1.036c-2.707,1 -3.68,3.032 -3.298,5.923Z" style="fill:#fff;"/><path d="M289.866,37.292c0.382,-2.891 -0.592,-4.923 -3.298,-5.923c-0.696,-0.257 -1.194,-0.515 -1.725,-1.036l-0,0.993c-0,5.099 2.628,3.572 5.023,5.966Z" style="fill:#fff;"/><path d="M290.915,42.968c2.565,-2.564 5.38,-0.928 5.38,-6.39l0,-1.064c-0.57,0.558 -1.102,0.835 -1.848,1.11c-2.899,1.071 -3.942,3.248 -3.532,6.344Z" style="fill:#fff;"/><path d="M289.891,42.968c0.409,-3.096 -0.634,-5.273 -3.532,-6.344c-0.746,-0.275 -1.279,-0.552 -1.848,-1.11l-0,1.064c-0,5.462 2.815,3.826 5.38,6.39Z" style="fill:#fff;"/><path d="M290.898,48.942c2.735,-2.733 5.737,-0.989 5.737,-6.813l0,-1.134c-0.607,0.595 -1.176,0.889 -1.97,1.183c-3.091,1.142 -4.204,3.463 -3.767,6.764Z" style="fill:#fff;"/><path d="M289.907,48.942c0.437,-3.301 -0.675,-5.622 -3.766,-6.764c-0.795,-0.294 -1.363,-0.588 -1.97,-1.183l-0,1.134c-0,5.824 3.002,4.08 5.736,6.813Z" style="fill:#fff;"/><path d="M294.891,48.066c-3.283,1.213 -4.464,3.679 -4,7.185c2.905,-2.903 6.093,-1.051 6.093,-7.237l0,-1.205c-0.645,0.632 -1.248,0.945 -2.093,1.257Z" style="fill:#fff;"/><path d="M285.914,48.066c-0.844,-0.312 -1.448,-0.625 -2.093,-1.257l-0,1.205c-0,6.186 3.188,4.334 6.093,7.237c0.464,-3.506 -0.717,-5.972 -4,-7.185Z" style="fill:#fff;"/></g></g><g><g><rect x="275.185" y="55.608" width="0.7" height="9.117" style="fill:#fff;"/><path d="M277.212,20.189c-0,-1.483 -0.562,-2.762 -1.432,-3.259l-0.245,-0.14l-0.245,0.14c-0.87,0.497 -1.432,1.776 -1.432,3.259c0.001,1.411 0.536,2.559 1.432,3.071l0.245,0.14l0.245,-0.14c0.896,-0.512 1.431,-1.66 1.432,-3.071Z" style="fill:#fff;"/><path d="M276.144,26.722c2.054,-2.053 4.309,-0.743 4.309,-5.118l0,-0.852c-0.456,0.447 -0.883,0.668 -1.48,0.889c-2.322,0.858 -3.157,2.601 -2.829,5.081Z" style="fill:#fff;"/><path d="M274.926,26.722c0.328,-2.48 -0.507,-4.223 -2.829,-5.081c-0.597,-0.221 -1.024,-0.442 -1.481,-0.889l0,0.852c0,4.375 2.255,3.065 4.31,5.118Z" style="fill:#fff;"/><path d="M276.105,31.885c2.225,-2.224 4.666,-0.805 4.666,-5.542l0,-0.923c-0.494,0.484 -0.956,0.724 -1.603,0.963c-2.514,0.929 -3.418,2.817 -3.063,5.502Z" style="fill:#fff;"/><path d="M274.965,31.885c0.356,-2.685 -0.549,-4.573 -3.063,-5.502c-0.647,-0.239 -1.109,-0.479 -1.603,-0.963l0,0.923c0,4.737 2.442,3.318 4.666,5.542Z" style="fill:#fff;"/><path d="M276.072,37.292c2.395,-2.394 5.023,-0.867 5.023,-5.966l0,-0.993c-0.531,0.521 -1.029,0.779 -1.725,1.036c-2.707,1 -3.68,3.032 -3.298,5.923Z" style="fill:#fff;"/><path d="M274.998,37.292c0.383,-2.891 -0.591,-4.923 -3.298,-5.923c-0.696,-0.257 -1.193,-0.515 -1.725,-1.036l-0,0.993c-0,5.099 2.628,3.572 5.023,5.966Z" style="fill:#fff;"/><path d="M276.047,42.968c2.565,-2.564 5.38,-0.928 5.38,-6.39l0,-1.064c-0.57,0.558 -1.102,0.835 -1.847,1.11c-2.899,1.071 -3.942,3.248 -3.533,6.344Z" style="fill:#fff;"/><path d="M275.023,42.968c0.409,-3.096 -0.633,-5.273 -3.532,-6.344c-0.746,-0.275 -1.278,-0.552 -1.848,-1.11l-0,1.064c-0,5.462 2.815,3.826 5.38,6.39Z" style="fill:#fff;"/><path d="M276.03,48.942c2.735,-2.733 5.737,-0.989 5.737,-6.813l0,-1.134c-0.607,0.595 -1.175,0.889 -1.97,1.183c-3.091,1.142 -4.203,3.463 -3.767,6.764Z" style="fill:#fff;"/><path d="M275.04,48.942c0.436,-3.301 -0.676,-5.622 -3.766,-6.764c-0.795,-0.294 -1.364,-0.588 -1.971,-1.183l0,1.134c0,5.824 3.002,4.08 5.737,6.813Z" style="fill:#fff;"/><path d="M280.023,48.066c-3.283,1.213 -4.464,3.679 -4,7.185c2.905,-2.903 6.094,-1.051 6.094,-7.237l-0,-1.205c-0.646,0.632 -1.249,0.945 -2.094,1.257Z" style="fill:#fff;"/><path d="M271.046,48.066c-0.844,-0.312 -1.448,-0.625 -2.093,-1.257l0,1.205c0,6.186 3.189,4.334 6.094,7.237c0.464,-3.506 -0.718,-5.972 -4.001,-7.185Z" style="fill:#fff;"/></g></g><g><g><rect x="260.522" y="55.608" width="0.7" height="9.117" style="fill:#fff;"/><path d="M262.549,20.189c-0,-1.483 -0.562,-2.762 -1.432,-3.259l-0.245,-0.14l-0.245,0.14c-0.869,0.497 -1.431,1.776 -1.431,3.259c0,1.411 0.535,2.559 1.431,3.071l0.245,0.14l0.245,-0.14c0.896,-0.512 1.431,-1.66 1.432,-3.071Z" style="fill:#fff;"/><path d="M261.481,26.722c2.054,-2.053 4.31,-0.743 4.31,-5.118l-0,-0.852c-0.457,0.447 -0.884,0.668 -1.481,0.889c-2.322,0.858 -3.157,2.601 -2.829,5.081Z" style="fill:#fff;"/><path d="M260.263,26.722c0.328,-2.48 -0.507,-4.223 -2.829,-5.081c-0.597,-0.221 -1.024,-0.442 -1.48,-0.889l-0,0.852c-0,4.375 2.255,3.065 4.309,5.118Z" style="fill:#fff;"/><path d="M261.442,31.885c2.225,-2.224 4.666,-0.805 4.666,-5.542l0,-0.923c-0.494,0.484 -0.956,0.724 -1.603,0.963c-2.514,0.929 -3.418,2.817 -3.063,5.502Z" style="fill:#fff;"/><path d="M260.302,31.885c0.356,-2.685 -0.549,-4.573 -3.063,-5.502c-0.647,-0.239 -1.109,-0.479 -1.603,-0.963l0,0.923c0,4.737 2.442,3.318 4.666,5.542Z" style="fill:#fff;"/><path d="M261.409,37.292c2.395,-2.394 5.024,-0.867 5.024,-5.966l-0,-0.993c-0.532,0.521 -1.03,0.779 -1.726,1.036c-2.706,1 -3.68,3.032 -3.298,5.923Z" style="fill:#fff;"/><path d="M260.335,37.292c0.383,-2.891 -0.591,-4.923 -3.298,-5.923c-0.696,-0.257 -1.193,-0.515 -1.725,-1.036l0,0.993c0,5.099 2.628,3.572 5.023,5.966Z" style="fill:#fff;"/><path d="M261.385,42.968c2.564,-2.564 5.38,-0.928 5.38,-6.39l-0,-1.064c-0.57,0.558 -1.103,0.835 -1.848,1.11c-2.899,1.071 -3.942,3.248 -3.532,6.344Z" style="fill:#fff;"/><path d="M260.36,42.968c0.409,-3.096 -0.633,-5.273 -3.532,-6.344c-0.746,-0.275 -1.278,-0.552 -1.848,-1.11l0,1.064c0,5.462 2.815,3.826 5.38,6.39Z" style="fill:#fff;"/><path d="M261.368,48.942c2.734,-2.733 5.736,-0.989 5.736,-6.813l0,-1.134c-0.607,0.595 -1.175,0.889 -1.97,1.183c-3.091,1.142 -4.203,3.463 -3.766,6.764Z" style="fill:#fff;"/><path d="M260.377,48.942c0.436,-3.301 -0.676,-5.622 -3.766,-6.764c-0.795,-0.294 -1.363,-0.588 -1.971,-1.183l0,1.134c0,5.824 3.002,4.08 5.737,6.813Z" style="fill:#fff;"/><path d="M265.36,48.066c-3.283,1.213 -4.464,3.679 -4,7.185c2.905,-2.903 6.094,-1.051 6.094,-7.237l-0,-1.205c-0.646,0.632 -1.249,0.945 -2.094,1.257Z" style="fill:#fff;"/><path d="M256.383,48.066c-0.844,-0.312 -1.447,-0.625 -2.093,-1.257l0,1.205c0,6.186 3.189,4.334 6.094,7.237c0.464,-3.506 -0.718,-5.972 -4.001,-7.185Z" style="fill:#fff;"/></g></g></g></svg>