<?xml version="1.0" encoding="UTF-8" standalone="no"?><!DOCTYPE svg PUBLIC "-//W3C//DTD SVG 1.1//EN" "http://www.w3.org/Graphics/SVG/1.1/DTD/svg11.dtd"><svg width="100%" height="100%" viewBox="0 0 313 116" version="1.1" xmlns="http://www.w3.org/2000/svg" xmlns:xlink="http://www.w3.org/1999/xlink" xml:space="preserve" xmlns:serif="http://www.serif.com/" style="fill-rule:evenodd;clip-rule:evenodd;stroke-linejoin:round;stroke-miterlimit:2;"><g><g><g><rect x="285.505" y="54.089" width="0.795" height="10.365" style="fill:#a0a603;"/><path d="M287.809,13.824c-0,-1.686 -0.639,-3.14 -1.628,-3.705l-0.278,-0.16l-0.279,0.16c-0.988,0.565 -1.627,2.019 -1.627,3.705c0,1.603 0.608,2.909 1.627,3.49l0.279,0.159l0.278,-0.159c1.019,-0.581 1.627,-1.887 1.628,-3.49Z" style="fill:#a0a603;"/><path d="M286.595,21.251c2.335,-2.335 4.899,-0.846 4.899,-5.819l0,-0.969c-0.519,0.508 -1.004,0.76 -1.683,1.011c-2.639,0.975 -3.589,2.957 -3.216,5.777Z" style="fill:#a0a603;"/><path d="M285.21,21.251c0.373,-2.82 -0.576,-4.802 -3.216,-5.777c-0.679,-0.251 -1.164,-0.503 -1.683,-1.011l0,0.969c0,4.973 2.564,3.484 4.899,5.819Z" style="fill:#a0a603;"/><path d="M286.551,27.12c2.529,-2.528 5.305,-0.915 5.305,-6.3l-0,-1.049c-0.562,0.55 -1.088,0.823 -1.823,1.094c-2.858,1.056 -3.886,3.202 -3.482,6.255Z" style="fill:#a0a603;"/><path d="M285.255,27.12c0.404,-3.053 -0.624,-5.199 -3.482,-6.255c-0.736,-0.271 -1.261,-0.544 -1.823,-1.094l0,1.049c0,5.385 2.776,3.772 5.305,6.3Z" style="fill:#a0a603;"/><path d="M286.514,33.267c2.722,-2.722 5.71,-0.986 5.71,-6.783l0,-1.129c-0.605,0.593 -1.17,0.886 -1.961,1.178c-3.077,1.137 -4.184,3.447 -3.749,6.734Z" style="fill:#a0a603;"/><path d="M285.292,33.267c0.435,-3.287 -0.672,-5.597 -3.749,-6.734c-0.791,-0.292 -1.357,-0.585 -1.961,-1.178l-0,1.129c-0,5.797 2.988,4.061 5.71,6.783Z" style="fill:#a0a603;"/><path d="M286.485,39.719c2.916,-2.914 6.116,-1.055 6.116,-7.264l0,-1.209c-0.647,0.634 -1.253,0.948 -2.1,1.261c-3.296,1.218 -4.481,3.692 -4.016,7.212Z" style="fill:#a0a603;"/><path d="M285.321,39.719c0.465,-3.52 -0.72,-5.994 -4.016,-7.212c-0.847,-0.313 -1.453,-0.627 -2.101,-1.261l0,1.209c0,6.209 3.201,4.35 6.117,7.264Z" style="fill:#a0a603;"/><path d="M286.466,46.511c3.109,-3.107 6.522,-1.125 6.522,-7.745l-0,-1.29c-0.691,0.677 -1.337,1.012 -2.24,1.345c-3.514,1.299 -4.778,3.938 -4.282,7.69Z" style="fill:#a0a603;"/><path d="M285.34,46.511c0.496,-3.752 -0.768,-6.391 -4.282,-7.69c-0.904,-0.333 -1.549,-0.668 -2.24,-1.345l-0,1.29c-0,6.62 3.413,4.638 6.522,7.745Z" style="fill:#a0a603;"/><path d="M291.005,45.515c-3.732,1.38 -5.075,4.182 -4.548,8.169c3.303,-3.301 6.928,-1.195 6.928,-8.228l-0,-1.37c-0.734,0.719 -1.42,1.075 -2.38,1.429Z" style="fill:#a0a603;"/><path d="M280.8,45.515c-0.96,-0.354 -1.646,-0.71 -2.38,-1.429l0,1.37c0,7.033 3.625,4.927 6.928,8.228c0.527,-3.987 -0.816,-6.789 -4.548,-8.169Z" style="fill:#a0a603;"/></g></g><g><g><rect x="268.603" y="54.089" width="0.795" height="10.365" style="fill:#a0a603;"/><path d="M270.907,13.824c-0,-1.686 -0.639,-3.14 -1.628,-3.705l-0.278,-0.16l-0.279,0.16c-0.989,0.565 -1.627,2.019 -1.627,3.705c0,1.603 0.608,2.909 1.627,3.49l0.279,0.159l0.278,-0.159c1.019,-0.581 1.627,-1.887 1.628,-3.49Z" style="fill:#a0a603;"/><path d="M269.693,21.251c2.335,-2.335 4.899,-0.846 4.899,-5.819l0,-0.969c-0.519,0.508 -1.004,0.76 -1.683,1.011c-2.64,0.975 -3.589,2.957 -3.216,5.777Z" style="fill:#a0a603;"/><path d="M268.308,21.251c0.373,-2.82 -0.577,-4.802 -3.216,-5.777c-0.679,-0.251 -1.164,-0.503 -1.683,-1.011l0,0.969c0,4.973 2.564,3.484 4.899,5.819Z" style="fill:#a0a603;"/><path d="M269.648,27.12c2.53,-2.528 5.305,-0.915 5.305,-6.3l0,-1.049c-0.562,0.55 -1.087,0.823 -1.822,1.094c-2.858,1.056 -3.886,3.202 -3.483,6.255Z" style="fill:#a0a603;"/><path d="M268.353,27.12c0.404,-3.053 -0.624,-5.199 -3.482,-6.255c-0.736,-0.271 -1.261,-0.544 -1.823,-1.094l0,1.049c0,5.385 2.776,3.772 5.305,6.3Z" style="fill:#a0a603;"/><path d="M269.611,33.267c2.723,-2.722 5.711,-0.986 5.711,-6.783l-0,-1.129c-0.605,0.593 -1.17,0.886 -1.962,1.178c-3.077,1.137 -4.183,3.447 -3.749,6.734Z" style="fill:#a0a603;"/><path d="M268.39,33.267c0.435,-3.287 -0.672,-5.597 -3.749,-6.734c-0.791,-0.292 -1.357,-0.585 -1.961,-1.178l-0,1.129c-0,5.797 2.988,4.061 5.71,6.783Z" style="fill:#a0a603;"/><path d="M269.583,39.719c2.916,-2.914 6.116,-1.055 6.116,-7.264l0,-1.209c-0.648,0.634 -1.253,0.948 -2.1,1.261c-3.296,1.218 -4.482,3.692 -4.016,7.212Z" style="fill:#a0a603;"/><path d="M268.418,39.719c0.466,-3.52 -0.72,-5.994 -4.015,-7.212c-0.847,-0.313 -1.453,-0.627 -2.101,-1.261l0,1.209c0,6.209 3.2,4.35 6.116,7.264Z" style="fill:#a0a603;"/><path d="M269.564,46.511c3.109,-3.107 6.522,-1.125 6.522,-7.745l-0,-1.29c-0.691,0.677 -1.337,1.012 -2.24,1.345c-3.514,1.299 -4.779,3.938 -4.282,7.69Z" style="fill:#a0a603;"/><path d="M268.438,46.511c0.496,-3.752 -0.768,-6.391 -4.282,-7.69c-0.904,-0.333 -1.55,-0.668 -2.24,-1.345l-0,1.29c-0,6.62 3.412,4.638 6.522,7.745Z" style="fill:#a0a603;"/><path d="M274.103,45.515c-3.732,1.38 -5.075,4.182 -4.548,8.169c3.303,-3.301 6.928,-1.195 6.928,-8.228l-0,-1.37c-0.734,0.719 -1.42,1.075 -2.38,1.429Z" style="fill:#a0a603;"/><path d="M263.898,45.515c-0.96,-0.354 -1.646,-0.71 -2.38,-1.429l0,1.37c0,7.033 3.625,4.927 6.927,8.228c0.528,-3.987 -0.815,-6.789 -4.547,-8.169Z" style="fill:#a0a603;"/></g></g><g><g><rect x="251.933" y="54.089" width="0.795" height="10.365" style="fill:#a0a603;"/><path d="M254.237,13.824c0,-1.686 -0.638,-3.14 -1.627,-3.705l-0.279,-0.16l-0.278,0.16c-0.989,0.565 -1.628,2.019 -1.628,3.705c0.001,1.603 0.609,2.909 1.628,3.49l0.278,0.159l0.279,-0.159c1.019,-0.581 1.627,-1.887 1.627,-3.49Z" style="fill:#a0a603;"/><path d="M253.024,21.251c2.335,-2.335 4.899,-0.846 4.899,-5.819l-0,-0.969c-0.519,0.508 -1.004,0.76 -1.683,1.011c-2.64,0.975 -3.589,2.957 -3.216,5.777Z" style="fill:#a0a603;"/><path d="M251.639,21.251c0.373,-2.82 -0.577,-4.802 -3.216,-5.777c-0.679,-0.251 -1.164,-0.503 -1.683,-1.011l-0,0.969c-0,4.973 2.563,3.484 4.899,5.819Z" style="fill:#a0a603;"/><path d="M252.979,27.12c2.529,-2.528 5.305,-0.915 5.305,-6.3l0,-1.049c-0.562,0.55 -1.087,0.823 -1.822,1.094c-2.859,1.056 -3.887,3.202 -3.483,6.255Z" style="fill:#a0a603;"/><path d="M251.684,27.12c0.404,-3.053 -0.624,-5.199 -3.483,-6.255c-0.735,-0.271 -1.26,-0.544 -1.822,-1.094l-0,1.049c-0,5.385 2.776,3.772 5.305,6.3Z" style="fill:#a0a603;"/><path d="M252.942,33.267c2.723,-2.722 5.711,-0.986 5.711,-6.783l-0,-1.129c-0.605,0.593 -1.17,0.886 -1.962,1.178c-3.077,1.137 -4.184,3.447 -3.749,6.734Z" style="fill:#a0a603;"/><path d="M251.721,33.267c0.435,-3.287 -0.672,-5.597 -3.749,-6.734c-0.791,-0.292 -1.357,-0.585 -1.962,-1.178l0,1.129c0,5.797 2.988,4.061 5.711,6.783Z" style="fill:#a0a603;"/><path d="M252.914,39.719c2.916,-2.914 6.116,-1.055 6.116,-7.264l0,-1.209c-0.648,0.634 -1.253,0.948 -2.101,1.261c-3.295,1.218 -4.481,3.692 -4.015,7.212Z" style="fill:#a0a603;"/><path d="M251.749,39.719c0.466,-3.52 -0.72,-5.994 -4.015,-7.212c-0.848,-0.313 -1.453,-0.627 -2.101,-1.261l-0,1.209c-0,6.209 3.2,4.35 6.116,7.264Z" style="fill:#a0a603;"/><path d="M252.895,46.511c3.109,-3.107 6.521,-1.125 6.521,-7.745l0,-1.29c-0.69,0.677 -1.336,1.012 -2.24,1.345c-3.514,1.299 -4.778,3.938 -4.281,7.69Z" style="fill:#a0a603;"/><path d="M251.768,46.511c0.497,-3.752 -0.768,-6.391 -4.281,-7.69c-0.904,-0.333 -1.55,-0.668 -2.24,-1.345l-0,1.29c-0,6.62 3.412,4.638 6.521,7.745Z" style="fill:#a0a603;"/><path d="M257.434,45.515c-3.733,1.38 -5.075,4.182 -4.548,8.169c3.303,-3.301 6.928,-1.195 6.928,-8.228l-0,-1.37c-0.734,0.719 -1.42,1.075 -2.38,1.429Z" style="fill:#a0a603;"/><path d="M247.229,45.515c-0.961,-0.354 -1.647,-0.71 -2.38,-1.429l-0,1.37c-0,7.033 3.625,4.927 6.927,8.228c0.528,-3.987 -0.815,-6.789 -4.547,-8.169Z" style="fill:#a0a603;"/></g></g><g><path d="M64.369,88.046l-3.095,-0l0,12.378c-1.815,1.032 -4.466,1.95 -7.953,2.754c-3.487,0.805 -7.252,1.207 -11.295,1.207c-7.716,0 -13.761,-2.032 -18.135,-6.096c-4.373,-4.064 -6.56,-10.346 -6.56,-18.846c-0,-8.706 2.176,-15.04 6.529,-19.001c4.353,-3.961 10.574,-5.942 18.661,-5.942c3.92,0 7.592,0.413 11.017,1.238c3.424,0.825 6.003,1.754 7.736,2.785l0,14.793l-15.473,-0l0,-2.909c0,-1.733 -0.361,-2.982 -1.083,-3.745c-0.722,-0.763 -1.867,-1.145 -3.435,-1.145c-1.568,0 -2.713,0.382 -3.435,1.145c-0.722,0.763 -1.083,2.012 -1.083,3.745l-0,18.072c-0,1.733 0.361,2.981 1.083,3.745c0.722,0.763 1.867,1.145 3.435,1.145c1.568,-0 2.713,-0.382 3.435,-1.145c0.722,-0.764 1.083,-2.012 1.083,-3.745l0,-0.433l-3.342,-0l-0,-9.222l21.91,-0l-0,9.222Z" style="fill:#fff;fill-rule:nonzero;"/><path d="M102.061,93.369l-0,10.15l-16.34,-0l0,-4.209c-0.907,1.321 -2.176,2.496 -3.806,3.528c-1.63,1.032 -3.621,1.547 -5.973,1.547c-3.094,0 -5.529,-0.825 -7.303,-2.475c-1.774,-1.651 -2.661,-3.982 -2.661,-6.994c-0,-7.799 6.622,-11.801 19.867,-12.007c-0.124,-1.403 -0.66,-2.362 -1.609,-2.878c-0.949,-0.516 -2.558,-0.774 -4.828,-0.774c-1.856,0 -3.847,0.196 -5.972,0.588c-2.125,0.392 -4.075,0.918 -5.849,1.578l0,-11.388c2.187,-0.536 4.559,-0.969 7.118,-1.299c2.558,-0.331 5.054,-0.496 7.489,-0.496c6.147,0 10.542,1.114 13.183,3.343c2.64,2.228 3.961,5.673 3.961,10.336l-0,11.45l2.723,-0Zm-16.34,-4.333c-1.856,0 -3.29,0.248 -4.301,0.743c-1.011,0.495 -1.516,1.32 -1.516,2.475c-0,0.702 0.216,1.269 0.649,1.703c0.434,0.433 1.042,0.649 1.826,0.649c1.073,0 1.898,-0.454 2.476,-1.361c0.578,-0.908 0.866,-2.187 0.866,-3.838l0,-0.371Z" style="fill:#fff;fill-rule:nonzero;"/><path d="M130.469,68.24c0.826,0 1.609,0.083 2.352,0.248c0.743,0.165 1.362,0.371 1.857,0.619l-0,11.821c-1.692,-0.701 -3.507,-1.052 -5.447,-1.052c-2.599,0 -4.6,0.681 -6.003,2.043c-1.403,1.361 -2.104,3.383 -2.104,6.065l-0,5.385l5.57,-0l-0,10.15l-22.529,-0l0,-10.15l2.723,-0l0,-14.112l-2.723,0l0,-10.15l16.959,-0l-0,4.518c1.155,-1.733 2.475,-3.064 3.961,-3.992c1.485,-0.928 3.28,-1.393 5.384,-1.393Z" style="fill:#fff;fill-rule:nonzero;"/><path d="M148.851,104.385c-4.208,0 -7.375,-1.568 -9.5,-4.703c-2.125,-3.136 -3.188,-7.593 -3.188,-13.369c0,-5.777 1.063,-10.233 3.188,-13.369c2.125,-3.136 5.292,-4.704 9.5,-4.704c2.105,0 3.972,0.516 5.601,1.548c1.63,1.031 2.961,2.207 3.992,3.528l0,-7.799l-3.651,0l-0,-10.15l17.887,-0l-0,38.002l2.723,-0l-0,10.15l-16.959,-0l0,-4.209c-1.031,1.321 -2.362,2.496 -3.992,3.528c-1.629,1.032 -3.496,1.547 -5.601,1.547Zm6.004,-11.016c1.196,-0 2.094,-0.32 2.692,-0.96c0.598,-0.639 0.897,-1.64 0.897,-3.002l0,-6.189c0,-1.361 -0.299,-2.362 -0.897,-3.002c-0.598,-0.639 -1.496,-0.959 -2.692,-0.959c-1.197,0 -2.094,0.32 -2.693,0.959c-0.598,0.64 -0.897,1.641 -0.897,3.002l0,6.189c0,1.362 0.299,2.363 0.897,3.002c0.599,0.64 1.496,0.96 2.693,0.96Z" style="fill:#fff;fill-rule:nonzero;"/><path d="M195.827,104.385c-5.859,0 -10.439,-1.537 -13.74,-4.611c-3.301,-3.074 -4.951,-7.561 -4.951,-13.461c-0,-5.901 1.65,-10.388 4.951,-13.462c3.301,-3.074 7.881,-4.611 13.74,-4.611c5.818,0 10.016,1.517 12.595,4.549c2.579,3.033 3.869,6.798 3.869,11.296l-0,4.456l-20.053,-0l-0,0.371c-0,1.527 0.453,2.651 1.361,3.373c0.908,0.722 2.414,1.084 4.518,1.084c2.517,-0 4.91,-0.186 7.18,-0.557c2.269,-0.372 4.25,-0.846 5.941,-1.424l0,9.903c-1.444,0.784 -3.558,1.495 -6.344,2.135c-2.785,0.64 -5.807,0.959 -9.067,0.959Zm3.59,-22.652l-0,-0.743c-0,-1.403 -0.299,-2.414 -0.897,-3.033c-0.599,-0.618 -1.496,-0.928 -2.693,-0.928c-1.196,0 -2.094,0.32 -2.692,0.959c-0.598,0.64 -0.897,1.641 -0.897,3.002l-0,0.743l7.179,-0Z" style="fill:#fff;fill-rule:nonzero;"/><path d="M243.561,63.957l16.68,-0l-0,8.339l-2.543,0l0,31.223l-14.289,-0l-14.9,-22.934l0,14.594l2.441,0l0,8.34l-16.679,-0l0,-8.34l2.543,0l-0,-22.883l-2.543,0l0,-8.339l18.357,-0l13.374,20.391l0,-12.052l-2.441,0l0,-8.339Z" style="fill:#fff;fill-rule:nonzero;"/><path d="M285.361,91.009l10.12,0l-0,12.51l-33.613,-0l-0,-7.323l15.662,-23.9l-5.288,0l-0,4.17l-10.12,-0l0,-12.509l32.545,-0l-0,7.322l-15.611,23.9l6.305,0l0,-4.17Z" style="fill:#fff;fill-rule:nonzero;"/></g></g></svg>