<?xml version="1.0" encoding="utf-8"?>
<!-- Generator: Adobe Illustrator 26.0.1, SVG Export Plug-In . SVG Version: 6.00 Build 0)  -->
<svg version="1.1" id="Layer_1" xmlns:serif="http://www.serif.com/"
	 xmlns="http://www.w3.org/2000/svg" xmlns:xlink="http://www.w3.org/1999/xlink" x="0px" y="0px" viewBox="0 0 666.1 269.3"
	 style="enable-background:new 0 0 666.1 269.3;" xml:space="preserve">
<style type="text/css">
	.st0{fill-rule:evenodd;clip-rule:evenodd;fill:#E5890A;}
	.st1{fill:#FFFFFF;}
</style>
<g>
	<g>
		<rect x="608.5" y="128.1" class="st0" width="1.7" height="22.1"/>
		<path class="st0" d="M613.4,42.2c0-3.6-1.4-6.7-3.5-7.9l-0.6-0.3l-0.6,0.3c-2.1,1.2-3.5,4.3-3.5,7.9c0,3.4,1.3,6.2,3.5,7.4
			l0.6,0.3l0.6-0.3C612.1,48.4,613.4,45.6,613.4,42.2z"/>
		<path class="st0" d="M610.8,58c5-5,10.5-1.8,10.5-12.4v-2.1c-1.1,1.1-2.1,1.6-3.6,2.2C612.1,47.8,610,52,610.8,58L610.8,58z"/>
		<path class="st0" d="M607.9,58c0.8-6-1.2-10.2-6.9-12.3c-1.4-0.5-2.5-1.1-3.6-2.2v2.1C597.4,56.2,602.9,53,607.9,58L607.9,58z"/>
		<path class="st0" d="M610.8,70.5c5.4-5.4,11.3-2,11.3-13.4v-2.2c-1.2,1.2-2.3,1.8-3.9,2.3C612.1,59.4,609.9,64,610.8,70.5z"/>
		<path class="st0" d="M608,70.5c0.9-6.5-1.3-11.1-7.4-13.3c-1.6-0.6-2.7-1.2-3.9-2.3v2.2C596.7,68.6,602.6,65.1,608,70.5z"/>
		<path class="st0" d="M610.7,83.6c5.8-5.8,12.2-2.1,12.2-14.5v-2.4c-1.3,1.3-2.5,1.9-4.2,2.5C612.1,71.7,609.7,76.6,610.7,83.6z"/>
		<path class="st0" d="M608.1,83.6c0.9-7-1.4-11.9-8-14.4c-1.7-0.6-2.9-1.3-4.2-2.5v2.4C595.9,81.5,602.3,77.8,608.1,83.6z"/>
		<path class="st0" d="M610.6,97.4c6.2-6.2,13-2.3,13-15.5v-2.6c-1.4,1.4-2.7,2-4.5,2.7C612.1,84.6,609.6,89.9,610.6,97.4
			L610.6,97.4z"/>
		<path class="st0" d="M608.1,97.4c1-7.5-1.5-12.8-8.6-15.4c-1.8-0.7-3.1-1.3-4.5-2.7v2.6C595.1,95.2,601.9,91.2,608.1,97.4z"/>
		<path class="st0" d="M610.6,111.9c6.6-6.6,13.9-2.4,13.9-16.5v-2.8c-1.5,1.4-2.9,2.2-4.8,2.9C612.2,98.3,609.5,103.9,610.6,111.9z
			"/>
		<path class="st0" d="M608.2,111.9c1.1-8-1.6-13.6-9.1-16.4c-1.9-0.7-3.3-1.4-4.8-2.9v2.8C594.3,109.5,601.5,105.3,608.2,111.9z"/>
		<path class="st0" d="M620.3,109.8c-8,2.9-10.8,8.9-9.7,17.4c7-7,14.8-2.5,14.8-17.6v-2.9C623.8,108.3,622.3,109,620.3,109.8z"/>
		<path class="st0" d="M598.5,109.8c-2-0.8-3.5-1.5-5.1-3v2.9c0,15,7.7,10.5,14.8,17.6C609.3,118.7,606.4,112.7,598.5,109.8z"/>
	</g>
</g>
<g>
	<g>
		<rect x="572.5" y="128.1" class="st0" width="1.7" height="22.1"/>
		<path class="st0" d="M577.4,42.2c0-3.6-1.4-6.7-3.5-7.9l-0.6-0.3l-0.6,0.3c-2.1,1.2-3.5,4.3-3.5,7.9c0,3.4,1.3,6.2,3.5,7.4
			l0.6,0.3l0.6-0.3C576.1,48.4,577.4,45.6,577.4,42.2z"/>
		<path class="st0" d="M574.8,58c5-5,10.5-1.8,10.5-12.4v-2.1c-1.1,1.1-2.1,1.6-3.6,2.2C576,47.8,574,52,574.8,58L574.8,58z"/>
		<path class="st0" d="M571.8,58c0.8-6-1.2-10.2-6.9-12.3c-1.4-0.5-2.5-1.1-3.6-2.2v2.1C561.4,56.2,566.8,53,571.8,58z"/>
		<path class="st0" d="M574.7,70.5c5.4-5.4,11.3-2,11.3-13.4v-2.2c-1.2,1.2-2.3,1.8-3.9,2.3C576,59.4,573.8,64,574.7,70.5z"/>
		<path class="st0" d="M571.9,70.5c0.9-6.5-1.3-11.1-7.4-13.3c-1.6-0.6-2.7-1.2-3.9-2.3v2.2C560.6,68.6,566.5,65.1,571.9,70.5z"/>
		<path class="st0" d="M574.6,83.6c5.8-5.8,12.2-2.1,12.2-14.5v-2.4c-1.3,1.3-2.5,1.9-4.2,2.5C576,71.7,573.7,76.6,574.6,83.6z"/>
		<path class="st0" d="M572,83.6c0.9-7-1.4-11.9-8-14.4c-1.7-0.6-2.9-1.3-4.2-2.5v2.4C559.8,81.5,566.2,77.8,572,83.6L572,83.6z"/>
		<path class="st0" d="M574.5,97.4c6.2-6.2,13.1-2.3,13.1-15.5v-2.6c-1.4,1.4-2.7,2-4.5,2.7C576.1,84.6,573.6,89.9,574.5,97.4
			L574.5,97.4z"/>
		<path class="st0" d="M572.1,97.4c1-7.5-1.5-12.8-8.6-15.4c-1.8-0.7-3.1-1.3-4.5-2.7v2.6C559,95.2,565.8,91.2,572.1,97.4
			L572.1,97.4z"/>
		<path class="st0" d="M574.5,111.9c6.6-6.6,13.9-2.4,13.9-16.5v-2.8c-1.5,1.4-2.9,2.2-4.8,2.9C576.1,98.3,573.4,103.9,574.5,111.9
			L574.5,111.9z"/>
		<path class="st0" d="M572.1,111.9c1.1-8-1.6-13.6-9.1-16.4c-1.9-0.7-3.3-1.4-4.8-2.9v2.8C558.2,109.5,565.5,105.3,572.1,111.9z"/>
		<path class="st0" d="M584.2,109.8c-8,2.9-10.8,8.9-9.7,17.4c7-7,14.8-2.5,14.8-17.6v-2.9C587.7,108.3,586.2,109,584.2,109.8z"/>
		<path class="st0" d="M562.4,109.8c-2-0.8-3.5-1.5-5.1-3v2.9c0,15,7.7,10.5,14.8,17.6C573.2,118.7,570.4,112.7,562.4,109.8z"/>
	</g>
</g>
<g>
	<g>
		<rect x="536.9" y="128.1" class="st0" width="1.7" height="22.1"/>
		<path class="st0" d="M541.8,42.2c0-3.6-1.4-6.7-3.5-7.9l-0.6-0.3l-0.6,0.3c-2.1,1.2-3.5,4.3-3.5,7.9c0,3.4,1.3,6.2,3.5,7.4
			l0.6,0.3l0.6-0.3C540.5,48.4,541.8,45.6,541.8,42.2z"/>
		<path class="st0" d="M539.2,58c5-5,10.5-1.8,10.5-12.4v-2.1c-1.1,1.1-2.1,1.6-3.6,2.2C540.4,47.8,538.4,52,539.2,58z"/>
		<path class="st0" d="M536.3,58c0.8-6-1.2-10.2-6.9-12.3c-1.4-0.5-2.5-1.1-3.6-2.2v2.1C525.8,56.2,531.3,53,536.3,58z"/>
		<path class="st0" d="M539.1,70.5c5.4-5.4,11.3-2,11.3-13.4v-2.2c-1.2,1.2-2.3,1.8-3.9,2.3C540.5,59.4,538.3,64,539.1,70.5z"/>
		<path class="st0" d="M536.4,70.5c0.9-6.5-1.3-11.1-7.4-13.3c-1.6-0.6-2.7-1.2-3.9-2.3v2.2C525,68.6,531,65.1,536.4,70.5z"/>
		<path class="st0" d="M539,83.6c5.8-5.8,12.2-2.1,12.2-14.5v-2.4c-1.3,1.3-2.5,1.9-4.2,2.5C540.5,71.7,538.1,76.6,539,83.6z"/>
		<path class="st0" d="M536.4,83.6c0.9-7-1.4-11.9-8-14.4c-1.7-0.6-2.9-1.3-4.2-2.5v2.4C524.3,81.5,530.6,77.8,536.4,83.6
			L536.4,83.6z"/>
		<path class="st0" d="M539,97.4c6.2-6.2,13-2.3,13-15.5v-2.6c-1.4,1.4-2.7,2-4.5,2.7C540.5,84.6,538,89.9,539,97.4L539,97.4z"/>
		<path class="st0" d="M536.5,97.4c1-7.5-1.5-12.8-8.6-15.4c-1.8-0.7-3.1-1.3-4.5-2.7v2.6C523.4,95.2,530.3,91.2,536.5,97.4z"/>
		<path class="st0" d="M538.9,111.9c6.6-6.6,13.9-2.4,13.9-16.5v-2.8c-1.5,1.4-2.9,2.2-4.8,2.9C540.6,98.3,537.9,103.9,538.9,111.9z
			"/>
		<path class="st0" d="M536.5,111.9c1.1-8-1.6-13.6-9.1-16.4c-1.9-0.7-3.3-1.4-4.8-2.9v2.8C522.6,109.5,529.9,105.3,536.5,111.9z"/>
		<path class="st0" d="M548.6,109.8c-8,2.9-10.8,8.9-9.7,17.4c7-7,14.8-2.5,14.8-17.6v-2.9C552.1,108.3,550.7,109,548.6,109.8
			L548.6,109.8z"/>
		<path class="st0" d="M526.9,109.8c-2-0.8-3.5-1.5-5.1-3v2.9c0,15,7.7,10.5,14.8,17.6C537.7,118.7,534.8,112.7,526.9,109.8z"/>
	</g>
</g>
<g>
	<path class="st1" d="M136.7,200.5h-6.6v26.4c-3.9,2.2-9.5,4.2-17,5.9c-7.4,1.7-15.5,2.6-24.1,2.6c-16.5,0-29.4-4.3-38.7-13
		c-9.3-8.7-14-22.1-14-40.2c0-18.6,4.6-32.1,13.9-40.5s22.6-12.7,39.8-12.7c8.4,0,16.2,0.9,23.5,2.6c7.3,1.8,12.8,3.7,16.5,5.9v31.6
		h-33v-6.2c0-3.7-0.8-6.4-2.3-8c-1.5-1.6-4-2.4-7.3-2.4c-3.3,0-5.8,0.8-7.3,2.4c-1.5,1.6-2.3,4.3-2.3,8v38.6c0,3.7,0.8,6.4,2.3,8
		c1.5,1.6,4,2.4,7.3,2.4c3.3,0,5.8-0.8,7.3-2.4c1.5-1.6,2.3-4.3,2.3-8v-0.9H90v-19.7h46.7V200.5L136.7,200.5z"/>
	<path class="st1" d="M217.1,211.9v21.7h-34.9v-9c-1.9,2.8-4.6,5.3-8.1,7.5c-3.5,2.2-7.7,3.3-12.7,3.3c-6.6,0-11.8-1.8-15.6-5.3
		c-3.8-3.5-5.7-8.5-5.7-14.9c0-16.6,14.1-25.2,42.4-25.6c-0.3-3-1.4-5-3.4-6.1c-2-1.1-5.5-1.7-10.3-1.7c-4,0-8.2,0.4-12.7,1.3
		c-4.5,0.8-8.7,2-12.5,3.4v-24.3c4.7-1.1,9.7-2.1,15.2-2.8c5.5-0.7,10.8-1.1,16-1.1c13.1,0,22.5,2.4,28.1,7.1
		c5.6,4.8,8.5,12.1,8.5,22.1v24.4H217.1z M182.3,202.6c-4,0-7,0.5-9.2,1.6c-2.2,1.1-3.2,2.8-3.2,5.3c0,1.5,0.5,2.7,1.4,3.6
		c0.9,0.9,2.2,1.4,3.9,1.4c2.3,0,4.1-1,5.3-2.9c1.2-1.9,1.8-4.7,1.8-8.2L182.3,202.6L182.3,202.6z"/>
	<path class="st1" d="M277.7,158.3c1.8,0,3.4,0.2,5,0.5c1.6,0.4,2.9,0.8,4,1.3v25.2c-3.6-1.5-7.5-2.2-11.6-2.2
		c-5.5,0-9.8,1.5-12.8,4.4c-3,2.9-4.5,7.2-4.5,12.9v11.5h11.9v21.7h-48.1v-21.7h5.8v-30.1h-5.8v-21.7h36.2v9.6
		c2.5-3.7,5.3-6.5,8.5-8.5C269.4,159.3,273.2,158.3,277.7,158.3z"/>
	<path class="st1" d="M317,235.4c-9,0-15.7-3.3-20.3-10c-4.5-6.7-6.8-16.2-6.8-28.5c0-12.3,2.3-21.8,6.8-28.5
		c4.5-6.7,11.3-10,20.3-10c4.5,0,8.5,1.1,12,3.3c3.5,2.2,6.3,4.7,8.5,7.5v-16.6h-7.8v-21.7h38.2v81.1h5.8v21.7h-36.2v-9
		c-2.2,2.8-5,5.3-8.5,7.5C325.4,234.3,321.4,235.4,317,235.4L317,235.4z M329.8,211.9c2.6,0,4.5-0.7,5.7-2c1.3-1.4,1.9-3.5,1.9-6.4
		v-13.2c0-2.9-0.6-5-1.9-6.4c-1.3-1.4-3.2-2-5.7-2s-4.5,0.7-5.7,2c-1.3,1.4-1.9,3.5-1.9,6.4v13.2c0,2.9,0.6,5,1.9,6.4
		C325.3,211.2,327.2,211.9,329.8,211.9z"/>
	<path class="st1" d="M417.2,235.4c-12.5,0-22.3-3.3-29.3-9.8c-7-6.6-10.6-16.1-10.6-28.7c0-12.6,3.5-22.2,10.6-28.7
		c7-6.6,16.8-9.8,29.3-9.8c12.4,0,21.4,3.2,26.9,9.7c5.5,6.5,8.3,14.5,8.3,24.1v9.5h-42.8v0.8c0,3.3,1,5.7,2.9,7.2
		c1.9,1.5,5.2,2.3,9.6,2.3c5.4,0,10.5-0.4,15.3-1.2c4.8-0.8,9.1-1.8,12.7-3v21.1c-3.1,1.7-7.6,3.2-13.5,4.6
		C430.6,234.7,424.1,235.4,417.2,235.4L417.2,235.4z M424.8,187v-1.6c0-3-0.6-5.2-1.9-6.5c-1.3-1.3-3.2-2-5.7-2
		c-2.6,0-4.5,0.7-5.7,2c-1.3,1.4-1.9,3.5-1.9,6.4v1.6H424.8z"/>
	<path class="st1" d="M519,149.1h35.6v17.8h-5.4v66.6h-30.5l-31.8-48.9v31.1h5.2v17.8h-35.6v-17.8h5.4v-48.8h-5.4v-17.8h39.2
		l28.5,43.5v-25.7H519C519,166.9,519,149.1,519,149.1z"/>
	<path class="st1" d="M608.2,206.8h21.6v26.7h-71.7v-15.6l33.4-51h-11.3v8.9h-21.6v-26.7h69.4v15.6l-33.3,51h13.5V206.8z"/>
</g>
</svg>
