<?xml version="1.0" encoding="UTF-8" standalone="no"?><!DOCTYPE svg PUBLIC "-//W3C//DTD SVG 1.1//EN" "http://www.w3.org/Graphics/SVG/1.1/DTD/svg11.dtd"><svg width="100%" height="100%" viewBox="0 0 417 417" version="1.1" xmlns="http://www.w3.org/2000/svg" xmlns:xlink="http://www.w3.org/1999/xlink" xml:space="preserve" xmlns:serif="http://www.serif.com/" style="fill-rule:evenodd;clip-rule:evenodd;stroke-linejoin:round;stroke-miterlimit:2;"><rect id="Artboard1" x="-0" y="0" width="416.667" height="416.667" style="fill:none;"/><g><path d="M366.867,208.333c-0,87.245 -70.726,157.971 -157.971,157.971c-87.246,0 -157.971,-70.726 -157.971,-157.971c-0,-87.245 70.725,-157.971 157.971,-157.971c87.245,0 157.971,70.726 157.971,157.971Z" style="fill:#b9b7c0;fill-rule:nonzero;"/><path d="M172.627,95.784c0.681,-0.14 1.369,-0.27 2.056,-0.403c-0.687,0.133 -1.375,0.264 -2.056,0.403Z" style="fill:#998386;fill-rule:nonzero;"/><path d="M166.067,97.258c0.956,-0.233 1.916,-0.461 2.886,-0.681c-0.97,0.22 -1.93,0.449 -2.886,0.681Z" style="fill:#998386;fill-rule:nonzero;"/><path d="M177.68,94.823c0.62,-0.111 1.243,-0.22 1.87,-0.327c-0.627,0.105 -1.25,0.216 -1.87,0.327Z" style="fill:#998386;fill-rule:nonzero;"/><path d="M187.688,211.712c3.324,-3.984 9.907,-6.902 20.163,-6.902c7.612,-0 13.275,1.607 17.124,4.052c35.322,12.643 49.508,68.691 33.121,80.98c-19.325,14.494 -99.525,15.46 -103.39,-13.528c-3.202,-24.022 9.046,-52.798 32.982,-64.602Zm-91.924,60.737c22.224,30.92 67.432,63.107 112.087,60.875c38.65,-1.933 82.133,-23.191 93.728,-44.449c11.595,-21.257 77.3,-59.908 77.3,-59.908c-1.659,-14.103 -12.944,-42.274 -34.218,-69.454c-0.147,2.244 -0.339,4.163 -0.567,5.681l-74.403,-54.111c0,0 1.395,-2.971 3.895,-7.438c-2.07,-0.87 -4.166,-1.706 -6.297,-2.493c-15.943,6.632 -30.306,16.285 -28.518,29.255c3.866,28.023 43.482,21.258 84.065,38.651c40.584,17.393 29.954,65.707 -2.899,76.335c-32.852,10.628 -40.583,-7.73 -64.74,-30.92c-24.156,-23.19 -86.964,-18.359 -110.153,14.494c-23.191,32.853 -47.348,23.19 -66.673,-7.731c-19.326,-30.919 11.596,-69.571 43.482,-61.841c31.887,7.731 62.808,-9.662 60.875,-34.785c-1.119,-14.542 -16.478,-20.983 -29.221,-23.834c-3.582,1.147 -7.072,2.381 -10.454,3.712c1.873,2.297 2.957,3.696 2.957,3.696l-67.639,52.178c-0.162,-1.132 -0.405,-4.409 -0.619,-9.102c-19.807,23.087 -32.148,49.141 -39.964,70.943c-0,0 35.751,19.326 57.976,50.246Z" style="fill:#998386;fill-rule:nonzero;"/><path d="M153.836,100.673c1.908,-0.607 3.851,-1.185 5.818,-1.738c-1.967,0.553 -3.909,1.131 -5.818,1.738Z" style="fill:#998386;fill-rule:nonzero;"/><path d="M161.399,98.451c0.852,-0.231 1.71,-0.457 2.573,-0.676c-0.863,0.219 -1.721,0.445 -2.573,0.676Z" style="fill:#998386;fill-rule:nonzero;"/><path d="M301.579,184.519c6.937,0 12.561,5.624 12.561,12.562c0,6.937 -5.624,12.56 -12.561,12.56c-6.939,0 -12.562,-5.623 -12.562,-12.56c-0,-6.938 5.623,-12.562 12.562,-12.562Zm-183.591,25.122c-6.938,0 -12.561,-5.623 -12.561,-12.56c-0,-6.938 5.623,-12.562 12.561,-12.562c6.937,0 12.562,5.624 12.562,12.562c0,6.937 -5.625,12.56 -12.562,12.56Zm64.74,-85.031c1.933,25.123 -28.988,42.516 -60.875,34.785c-31.886,-7.73 -62.808,30.922 -43.482,61.841c19.325,30.921 43.482,40.584 66.673,7.731c23.189,-32.853 85.997,-37.684 110.153,-14.494c24.157,23.19 31.888,41.548 64.74,30.92c32.853,-10.628 43.483,-58.942 2.899,-76.335c-40.583,-17.393 -80.199,-10.628 -84.065,-38.651c-1.788,-12.97 12.575,-22.623 28.518,-29.255l-0,-0.002c-0.122,-0.043 -0.244,-0.084 -0.366,-0.129c-1.735,-0.636 -3.495,-1.239 -5.273,-1.818c-0.547,-0.179 -1.093,-0.36 -1.645,-0.533c-0.734,-0.23 -1.476,-0.45 -2.217,-0.671c-0.595,-0.177 -1.191,-0.35 -1.791,-0.52c-0.727,-0.206 -1.456,-0.41 -2.19,-0.606c-0.65,-0.173 -1.306,-0.339 -1.961,-0.506c-0.7,-0.176 -1.396,-0.357 -2.1,-0.525c-1.032,-0.246 -2.072,-0.477 -3.115,-0.702c-0.82,-0.178 -1.648,-0.345 -2.476,-0.51c-0.832,-0.165 -1.664,-0.332 -2.505,-0.484c-0.644,-0.118 -1.293,-0.225 -1.942,-0.335c-0.813,-0.137 -1.63,-0.27 -2.451,-0.395c-0.638,-0.097 -1.277,-0.192 -1.919,-0.281c-0.897,-0.125 -1.8,-0.24 -2.707,-0.35c-0.568,-0.07 -1.134,-0.143 -1.705,-0.207c-1.446,-0.16 -2.901,-0.305 -4.369,-0.427c-0.284,-0.022 -0.573,-0.037 -0.858,-0.06c-1.239,-0.095 -2.484,-0.179 -3.739,-0.246c-0.536,-0.029 -1.078,-0.05 -1.618,-0.073c-1.032,-0.045 -2.067,-0.083 -3.109,-0.109c-0.571,-0.014 -1.143,-0.024 -1.716,-0.034c-1.081,-0.015 -2.169,-0.017 -3.262,-0.012c-0.507,0.003 -1.013,0.002 -1.522,0.009c-1.595,0.023 -3.197,0.062 -4.815,0.132c-2.188,0.093 -4.339,0.226 -6.473,0.378c-0.514,0.038 -1.026,0.076 -1.537,0.117c-2.092,0.163 -4.17,0.345 -6.211,0.565l-0.029,0.002c-2.196,0.236 -4.361,0.508 -6.499,0.806c-0.241,0.033 -0.479,0.069 -0.718,0.103c-1.653,0.236 -3.284,0.496 -4.901,0.767c-0.627,0.107 -1.25,0.216 -1.87,0.327c-1.007,0.179 -2.004,0.365 -2.997,0.558c-0.687,0.133 -1.375,0.263 -2.056,0.403c-1.234,0.253 -2.459,0.519 -3.674,0.793c-0.97,0.22 -1.93,0.448 -2.886,0.681c-0.7,0.169 -1.4,0.339 -2.095,0.517c-0.863,0.219 -1.721,0.445 -2.573,0.676c-0.586,0.158 -1.165,0.322 -1.745,0.484c-1.967,0.553 -3.91,1.131 -5.818,1.738c-0.11,0.035 -0.222,0.067 -0.331,0.103l0.002,-0c12.743,2.851 28.102,9.292 29.221,23.834Z" style="fill:#694c51;fill-rule:nonzero;"/><path d="M258.096,289.842c16.387,-12.289 2.201,-68.337 -33.121,-80.98c12.276,7.795 5.91,24.201 -16.158,24.936c-19.942,0.665 -28.457,-13.303 -21.129,-22.086c-23.936,11.804 -36.184,40.58 -32.982,64.602c3.865,28.988 84.065,28.022 103.39,13.528Z" style="fill:#fffabc;fill-rule:nonzero;"/><path d="M315.106,83.061c10.629,-0.966 15.461,34.786 13.527,44.449c-1.932,9.662 -37.684,-11.596 -36.717,-20.293c0.861,-7.742 12.562,-23.19 23.19,-24.156Zm28.988,82.133c0.228,-1.518 0.42,-3.437 0.567,-5.681c1.733,-26.327 -2.616,-97.634 -26.656,-96.743c-19.555,0.725 -36.938,27.505 -44.419,40.875c-2.5,4.467 -3.895,7.438 -3.895,7.438l74.403,54.111Z" style="fill:#998386;fill-rule:nonzero;"/><path d="M96.731,83.061c5.796,-3.865 26.089,17.123 26.089,24.156c-0,12.562 -21.258,25.124 -28.022,20.293c-6.765,-4.832 -3.866,-40.584 1.933,-44.449Zm49.279,25.123c-0,0 -1.084,-1.399 -2.957,-3.696c-9.487,-11.627 -39.37,-46.4 -53.086,-40.752c-13.678,5.632 -13.287,64.178 -12.215,87.524c0.214,4.693 0.457,7.97 0.619,9.102l67.639,-52.178Z" style="fill:#998386;fill-rule:nonzero;"/><path d="M328.633,127.51c1.934,-9.663 -2.898,-45.415 -13.527,-44.449c-10.628,0.966 -22.329,16.414 -23.19,24.156c-0.967,8.697 34.785,29.955 36.717,20.293Z" style="fill:#694c51;fill-rule:nonzero;"/><path d="M94.798,127.51c6.764,4.831 28.022,-7.731 28.022,-20.293c-0,-7.033 -20.293,-28.021 -26.089,-24.156c-5.799,3.865 -8.698,39.617 -1.933,44.449Z" style="fill:#694c51;fill-rule:nonzero;"/><path d="M117.988,184.519c-6.938,0 -12.561,5.624 -12.561,12.562c-0,6.937 5.623,12.56 12.561,12.56c6.937,0 12.562,-5.623 12.562,-12.56c0,-6.938 -5.625,-12.562 -12.562,-12.562Z" style="fill:#392328;fill-rule:nonzero;"/><path d="M301.579,209.641c6.937,0 12.561,-5.623 12.561,-12.56c0,-6.938 -5.624,-12.562 -12.561,-12.562c-6.939,0 -12.562,5.624 -12.562,12.562c-0,6.937 5.623,12.56 12.562,12.56Z" style="fill:#392328;fill-rule:nonzero;"/><path d="M208.817,233.798c22.068,-0.735 28.434,-17.141 16.158,-24.936c-3.849,-2.445 -9.512,-4.052 -17.124,-4.052c-10.256,-0 -16.839,2.918 -20.163,6.902c-7.328,8.783 1.187,22.751 21.129,22.086Z" style="fill:#392328;fill-rule:nonzero;"/></g></svg>