<?xml version="1.0" encoding="UTF-8" standalone="no"?><!DOCTYPE svg PUBLIC "-//W3C//DTD SVG 1.1//EN" "http://www.w3.org/Graphics/SVG/1.1/DTD/svg11.dtd"><svg width="100%" height="100%" viewBox="0 0 417 417" version="1.1" xmlns="http://www.w3.org/2000/svg" xmlns:xlink="http://www.w3.org/1999/xlink" xml:space="preserve" xmlns:serif="http://www.serif.com/" style="fill-rule:evenodd;clip-rule:evenodd;stroke-linejoin:round;stroke-miterlimit:2;"><rect id="Artboard1" x="-0" y="0" width="416.667" height="416.667" style="fill:none;"/><g><path d="M369.427,208.333c-0,87.246 -70.726,157.971 -157.971,157.971c-87.246,0 -157.971,-70.725 -157.971,-157.971c-0,-87.245 70.725,-157.971 157.971,-157.971c87.245,0 157.971,70.726 157.971,157.971Z" style="fill:#dabc86;fill-rule:nonzero;"/><path d="M102.136,126.418c-11.646,-9.633 -41.782,-30.921 -72.261,-22.608c-9.849,2.686 1.873,63.43 25.168,80.028c10.979,-20.139 26.119,-40.652 47.093,-57.42Z" style="fill:#8d5c34;fill-rule:nonzero;"/><path d="M363.131,182.693c22.294,-18.077 33.294,-76.256 23.66,-78.883c-29.779,-8.12 -59.221,12.004 -71.425,21.92c21.121,17.212 37.001,38.057 47.765,56.963Z" style="fill:#8d5c34;fill-rule:nonzero;"/><path d="M302.833,286.453l0.011,-0.019l0.002,-0.003l-0.002,0.003l-0.011,0.019Z" style="fill:#fffabc;fill-rule:nonzero;"/><path d="M136.639,307.786c-5.827,-3.928 -11.346,-8.193 -16.469,-12.663c5.123,4.473 10.642,8.736 16.469,12.663Z" style="fill:#fffabc;fill-rule:nonzero;"/><path d="M285.452,145.359c-51.213,1.933 -55.077,83.098 -55.077,107.255c-0,0.122 -0.008,0.238 -0.011,0.358c8.434,8.306 1.404,22.159 -18.831,22.833c-21.315,0.71 -29.552,-15.286 -19.368,-23.81c0.019,-1.33 0.184,-2.732 0.525,-4.212c5.798,-25.122 -9.662,-140.108 -63.774,-106.289c-37.422,23.388 -56.812,68.947 -65.218,94.833l-0.063,-0.048c5.556,4.321 11.539,9.407 17.385,15.183c9.767,-24.652 31.125,-70.272 57.076,-75.183c33.026,-6.247 34.718,92.212 12.697,140.015c18.136,9.642 38.281,15.591 58.324,14.589c20.987,-1.05 43.386,-7.803 61.339,-17.155c-20.811,-48.668 -18.606,-143.586 13.837,-137.449c26,4.919 47.386,50.693 57.128,75.314c3.896,-2.751 7.787,-5.405 11.512,-7.89c-9.937,-37.894 -27.543,-99.851 -67.481,-98.344Z" style="fill:#fffabc;fill-rule:nonzero;"/><path d="M272.484,312.65c-0.567,0.308 -1.14,0.613 -1.717,0.915c0.577,-0.302 1.15,-0.607 1.717,-0.915Z" style="fill:#fffabc;fill-rule:nonzero;"/><path d="M150.562,316.175c-1.304,-0.697 -2.6,-1.409 -3.882,-2.141c1.282,0.732 2.578,1.444 3.882,2.141Z" style="fill:#fffabc;fill-rule:nonzero;"/><path d="M283.587,305.868c-0.528,0.364 -1.06,0.728 -1.601,1.088c0.541,-0.36 1.073,-0.724 1.601,-1.088Z" style="fill:#fffabc;fill-rule:nonzero;"/><path d="M274.784,311.373c-0.537,0.306 -1.078,0.609 -1.624,0.908c0.546,-0.299 1.086,-0.602 1.624,-0.908Z" style="fill:#fffabc;fill-rule:nonzero;"/><path d="M285.69,304.376c-0.547,0.4 -1.101,0.797 -1.666,1.192c0.565,-0.395 1.119,-0.792 1.666,-1.192Z" style="fill:#fffabc;fill-rule:nonzero;"/><path d="M281.442,307.311c-0.515,0.338 -1.033,0.676 -1.562,1.01c0.529,-0.334 1.047,-0.672 1.562,-1.01Z" style="fill:#fffabc;fill-rule:nonzero;"/><path d="M277.044,310.06c-0.521,0.309 -1.044,0.618 -1.574,0.923c0.53,-0.306 1.053,-0.614 1.574,-0.923Z" style="fill:#fffabc;fill-rule:nonzero;"/><path d="M279.265,308.705c-0.514,0.321 -1.03,0.641 -1.555,0.958c0.525,-0.317 1.041,-0.637 1.555,-0.958Z" style="fill:#fffabc;fill-rule:nonzero;"/><path d="M287.905,302.717c-0.621,0.481 -1.256,0.96 -1.905,1.436c0.648,-0.476 1.284,-0.953 1.905,-1.436Z" style="fill:#fffabc;fill-rule:nonzero;"/><path d="M380.142,226.525c0,0 -0.376,0.225 -1.071,0.64c0.695,-0.416 1.071,-0.64 1.071,-0.64Z" style="fill:#fffabc;fill-rule:nonzero;"/><path d="M97.026,270.001l0.004,0.006c0.734,1.021 1.495,2.044 2.278,3.066c-0.783,-1.022 -1.544,-2.045 -2.278,-3.066l-0.004,-0.006Z" style="fill:#fffabc;fill-rule:nonzero;"/><path d="M315.366,125.73c-25.063,-20.421 -57.501,-35.717 -97.573,-36.533c-1.77,-0.035 -3.552,-0.046 -5.351,-0.025c-1.739,0.021 -3.491,0.069 -5.258,0.144c-45.609,1.949 -79.617,16.772 -105.048,37.102c-20.974,16.768 -36.114,37.281 -47.093,57.42c-3.198,5.868 -6.041,11.703 -8.576,17.405c-0.365,0.822 -0.725,1.641 -1.077,2.456c-0.684,1.583 -1.343,3.153 -1.98,4.708c-0.413,1.012 -0.818,2.016 -1.212,3.015c-0.791,2 -1.548,3.979 -2.266,5.923c-0.298,0.811 -0.591,1.617 -0.878,2.417l0.112,0.061l0.066,0.036c0.076,0.042 0.17,0.095 0.295,0.164l0.089,0.051c0.144,0.08 0.311,0.174 0.507,0.286l0.096,0.056c0.214,0.121 0.455,0.26 0.723,0.416l0.098,0.057c0.289,0.168 0.608,0.356 0.956,0.561l0.055,0.033c3.028,1.797 8.128,4.964 14.262,9.341l0.121,0.087c0.716,0.51 1.447,1.039 2.188,1.583l0.195,0.142c0.733,0.538 1.48,1.095 2.235,1.664l0.192,0.145c0.787,0.595 1.585,1.206 2.391,1.834l0.063,0.048c8.406,-25.886 27.796,-71.445 65.218,-94.833c54.112,-33.819 69.572,81.167 63.774,106.289c-0.341,1.48 -0.506,2.882 -0.525,4.212c3.668,-3.068 9.7,-5.178 18.401,-5.178c9.627,0 16.151,2.562 19.798,6.155c0.003,-0.12 0.011,-0.236 0.011,-0.358c-0,-24.157 3.864,-105.322 55.077,-107.255c39.938,-1.507 57.544,60.45 67.481,98.344c11.577,-7.72 21.599,-13.813 25.477,-16.146l0.083,-0.045l0.175,-0.107l0.295,-0.175l0.108,-0.065c0.695,-0.415 1.071,-0.64 1.071,-0.64c-1.13,-9.64 -6.767,-25.855 -17.011,-43.832c-10.764,-18.906 -26.644,-39.751 -47.765,-56.963Z" style="fill:#8d5c34;fill-rule:nonzero;"/><path d="M133.264,229.424c-6.937,0 -12.56,-5.623 -12.56,-12.562c-0,-6.936 5.623,-12.561 12.56,-12.561c6.939,-0 12.562,5.625 12.562,12.561c0,6.939 -5.623,12.562 -12.562,12.562Zm4.832,-53.145c-25.951,4.911 -47.309,50.531 -57.076,75.183c1.286,1.271 2.562,2.585 3.828,3.919c0.185,0.196 0.37,0.387 0.554,0.584c1.205,1.284 2.395,2.599 3.569,3.941c0.219,0.251 0.437,0.502 0.657,0.756c1.169,1.354 2.322,2.734 3.448,4.144c0.17,0.213 0.336,0.43 0.506,0.645c1.174,1.49 2.331,3.001 3.444,4.55l0.004,0.006c0.734,1.021 1.495,2.044 2.278,3.066c0.238,0.311 0.491,0.621 0.733,0.932c0.558,0.715 1.118,1.428 1.698,2.141c0.294,0.361 0.599,0.722 0.899,1.082c0.554,0.668 1.111,1.334 1.684,2c0.316,0.367 0.64,0.731 0.962,1.096c0.585,0.665 1.174,1.329 1.778,1.99c0.321,0.352 0.645,0.702 0.97,1.052c0.636,0.684 1.281,1.367 1.936,2.047c0.307,0.318 0.614,0.635 0.926,0.952c0.709,0.724 1.43,1.445 2.161,2.163c0.272,0.267 0.542,0.535 0.818,0.801c0.821,0.795 1.656,1.585 2.503,2.37c0.197,0.184 0.391,0.368 0.589,0.551c1.021,0.938 2.058,1.868 3.113,2.79l0.092,0.083c5.123,4.47 10.642,8.735 16.469,12.663c1.941,1.31 3.917,2.582 5.925,3.811l0.054,0.033c1.319,0.808 2.653,1.598 3.999,2.368l0.063,0.036c1.282,0.732 2.578,1.444 3.882,2.141l0.228,0.126l0.003,-0.007c22.021,-47.803 20.329,-146.262 -12.697,-140.015Z" style="fill:#8d5c34;fill-rule:nonzero;"/><path d="M287.868,229.424c-6.938,0 -12.562,-5.623 -12.562,-12.562c-0,-6.936 5.624,-12.561 12.562,-12.561c6.937,-0 12.56,5.625 12.56,12.561c0,6.939 -5.623,12.562 -12.56,12.562Zm-3.575,-53.145c-32.443,-6.137 -34.648,88.781 -13.837,137.449l0.001,0.002l0.31,-0.165c0.577,-0.302 1.15,-0.607 1.717,-0.915c0.226,-0.122 0.452,-0.245 0.676,-0.369c0.546,-0.299 1.087,-0.602 1.624,-0.908c0.228,-0.129 0.458,-0.259 0.686,-0.39c0.53,-0.305 1.053,-0.614 1.574,-0.923c0.221,-0.132 0.445,-0.264 0.666,-0.397c0.525,-0.317 1.041,-0.637 1.555,-0.958c0.205,-0.128 0.411,-0.255 0.615,-0.384c0.529,-0.334 1.047,-0.672 1.562,-1.01c0.181,-0.118 0.365,-0.236 0.544,-0.355c0.541,-0.36 1.073,-0.724 1.601,-1.088c0.145,-0.101 0.294,-0.2 0.437,-0.3c0.565,-0.395 1.119,-0.792 1.666,-1.192l0.31,-0.223c0.649,-0.476 1.284,-0.955 1.905,-1.436c0.122,-0.093 0.246,-0.186 0.366,-0.279c0.548,-0.429 1.078,-0.862 1.605,-1.296c0.215,-0.178 0.435,-0.354 0.647,-0.532c0.462,-0.388 0.909,-0.779 1.353,-1.17c0.261,-0.229 0.52,-0.456 0.775,-0.687c0.397,-0.36 0.785,-0.722 1.168,-1.084c0.28,-0.265 0.555,-0.53 0.827,-0.797c0.346,-0.339 0.686,-0.679 1.017,-1.021c0.288,-0.293 0.566,-0.589 0.842,-0.885c0.298,-0.32 0.595,-0.64 0.882,-0.961c0.287,-0.324 0.562,-0.647 0.837,-0.973c0.254,-0.299 0.51,-0.599 0.753,-0.899c0.287,-0.356 0.555,-0.712 0.826,-1.068c0.208,-0.274 0.421,-0.547 0.619,-0.821c0.295,-0.408 0.566,-0.817 0.839,-1.226c0.149,-0.225 0.311,-0.45 0.454,-0.677c0.399,-0.629 0.774,-1.259 1.118,-1.888l0.011,-0.019l0.002,-0.003c0.312,-0.57 0.669,-1.155 1.056,-1.749l0.113,-0.178c0.376,-0.57 0.79,-1.15 1.229,-1.739l0.196,-0.261c0.441,-0.581 0.914,-1.172 1.412,-1.769l0.239,-0.284c0.511,-0.605 1.048,-1.216 1.614,-1.836l0.228,-0.249c0.591,-0.642 1.205,-1.291 1.849,-1.946l0.124,-0.125c2.092,-2.125 4.447,-4.315 6.993,-6.538l0.05,-0.043c6.907,-6.027 15.213,-12.291 23.473,-18.118l-0.001,-0.003c-9.742,-24.621 -31.128,-70.395 -57.128,-75.314Z" style="fill:#8d5c34;fill-rule:nonzero;"/><path d="M133.264,204.301c-6.937,-0 -12.56,5.625 -12.56,12.561c-0,6.939 5.623,12.562 12.56,12.562c6.939,0 12.562,-5.623 12.562,-12.562c0,-6.936 -5.623,-12.561 -12.562,-12.561Z" style="fill:#412607;fill-rule:nonzero;"/><path d="M287.868,204.301c-6.938,-0 -12.562,5.625 -12.562,12.561c-0,6.939 5.624,12.562 12.562,12.562c6.937,0 12.56,-5.623 12.56,-12.562c0,-6.936 -5.623,-12.561 -12.56,-12.561Z" style="fill:#412607;fill-rule:nonzero;"/><path d="M211.533,275.805c20.235,-0.674 27.265,-14.527 18.831,-22.833c-3.647,-3.593 -10.171,-6.155 -19.798,-6.155c-8.701,0 -14.733,2.11 -18.401,5.178c-10.184,8.524 -1.947,24.52 19.368,23.81Z" style="fill:#412607;fill-rule:nonzero;"/></g></svg>