<?xml version="1.0" encoding="UTF-8" standalone="no"?><!DOCTYPE svg PUBLIC "-//W3C//DTD SVG 1.1//EN" "http://www.w3.org/Graphics/SVG/1.1/DTD/svg11.dtd"><svg width="100%" height="100%" viewBox="0 0 417 417" version="1.1" xmlns="http://www.w3.org/2000/svg" xmlns:xlink="http://www.w3.org/1999/xlink" xml:space="preserve" xmlns:serif="http://www.serif.com/" style="fill-rule:evenodd;clip-rule:evenodd;stroke-linejoin:round;stroke-miterlimit:2;"><rect id="Artboard1" x="0" y="0" width="416.667" height="416.667" style="fill:none;"/><g><g><path d="M360.533,208.333c0,87.245 -70.725,157.971 -157.97,157.971c-87.246,0 -157.973,-70.726 -157.973,-157.971c-0,-87.245 70.727,-157.971 157.973,-157.971c87.245,0 157.97,70.726 157.97,157.971Z" style="fill:#d6eace;fill-rule:nonzero;"/><path d="M91.308,272.43l0.015,0.019c0.714,0.993 1.453,1.987 2.212,2.982c-0.759,-0.995 -1.498,-1.989 -2.212,-2.982l-0.015,-0.019Z" style="fill:#88d1cc;fill-rule:nonzero;"/><path d="M199.545,294.673c-28.988,0.966 -33.834,-28.988 -0.966,-28.988c31.886,0 29.954,28.022 0.966,28.988Zm109.187,-163.299c0,0 0.807,-0.786 2.282,-2.095c-27.396,-22.765 -63.798,-39.476 -109.537,-37.521c-44.751,1.912 -78.338,16.216 -103.608,35.957c2.618,2.227 4.083,3.659 4.083,3.659l-44.449,57.976c-2.779,-1.069 -5.321,-2.422 -7.664,-3.981c-7.028,12.754 -12.386,25.382 -16.493,36.834c0,0 15.271,8.258 32.055,22.607c10.233,-26.799 34.29,-74.914 77.134,-82.515c55.229,-9.799 27.516,116.724 -0.62,154.717c18.942,10.655 40.278,17.372 61.494,16.312c20.562,-1.029 42.49,-7.526 60.258,-16.583c-28.069,-38.312 -55.528,-164.222 -0.426,-154.446c45.54,8.079 69.846,61.912 78.894,87.285c17.083,-11.658 32.304,-20.613 32.304,-20.613c-1.098,-9.329 -6.409,-24.817 -16.033,-42.1c-1.649,0.933 -3.382,1.775 -5.225,2.483l-44.449,-57.976Z" style="fill:#88d1cc;fill-rule:nonzero;"/><path d="M141.861,316.983c-1.276,-0.718 -2.541,-1.454 -3.794,-2.206c1.253,0.752 2.518,1.488 3.794,2.206Z" style="fill:#88d1cc;fill-rule:nonzero;"/><path d="M136.737,223.17c-6.937,-0 -12.561,-5.625 -12.561,-12.562c0,-6.938 5.624,-12.562 12.561,-12.562c6.938,0 12.562,5.624 12.562,12.562c-0,6.937 -5.624,12.562 -12.562,12.562Zm5.798,-60.875c-42.844,7.601 -66.901,55.716 -77.134,82.515l-0,0.001c1.048,0.895 2.102,1.819 3.158,2.762c0.176,0.157 0.352,0.317 0.527,0.475c0.881,0.791 1.763,1.601 2.645,2.424c0.202,0.19 0.404,0.376 0.606,0.566c1.04,0.981 2.078,1.979 3.113,3.004l0.167,0.169c0.945,0.937 1.885,1.898 2.818,2.872c0.26,0.268 0.517,0.539 0.775,0.812c0.828,0.875 1.649,1.762 2.464,2.664c0.179,0.198 0.36,0.392 0.539,0.591c0.963,1.077 1.914,2.175 2.853,3.288c0.219,0.262 0.434,0.527 0.652,0.789c0.735,0.886 1.463,1.785 2.18,2.694c0.258,0.327 0.516,0.654 0.772,0.985c0.896,1.159 1.78,2.33 2.638,3.524l0.015,0.019c0.714,0.993 1.453,1.987 2.212,2.982c0.223,0.29 0.459,0.58 0.684,0.868c0.55,0.707 1.099,1.412 1.671,2.117c0.275,0.339 0.563,0.676 0.843,1.015c0.543,0.658 1.086,1.314 1.647,1.97c0.298,0.346 0.609,0.693 0.913,1.041c0.565,0.646 1.131,1.293 1.713,1.937c0.308,0.339 0.627,0.677 0.939,1.015c0.6,0.652 1.204,1.303 1.823,1.951c0.307,0.323 0.623,0.643 0.936,0.964c0.641,0.662 1.288,1.323 1.949,1.979c0.306,0.304 0.618,0.607 0.929,0.91c0.686,0.671 1.378,1.342 2.083,2.006c0.297,0.281 0.599,0.561 0.899,0.84c0.737,0.685 1.48,1.366 2.234,2.043c0.285,0.255 0.572,0.508 0.859,0.762c0.788,0.696 1.584,1.39 2.392,2.076c0.267,0.229 0.537,0.456 0.807,0.682c0.843,0.709 1.696,1.412 2.558,2.107c0.247,0.201 0.496,0.4 0.745,0.598c0.9,0.719 1.812,1.431 2.732,2.135c0.223,0.17 0.445,0.34 0.669,0.509c0.962,0.729 1.936,1.448 2.918,2.159c0.193,0.139 0.384,0.278 0.577,0.417c1.029,0.737 2.068,1.463 3.119,2.18c0.155,0.108 0.311,0.215 0.468,0.321c1.102,0.747 2.216,1.481 3.339,2.202c0.112,0.072 0.221,0.144 0.333,0.216c1.188,0.758 2.387,1.502 3.597,2.231l0.156,0.095c1.253,0.752 2.518,1.488 3.794,2.206l0.053,0.032l0.001,-0.003c28.136,-37.993 55.849,-164.516 0.62,-154.717Z" style="fill:#068b83;fill-rule:nonzero;"/><path d="M271.048,223.17c-6.937,-0 -12.561,-5.625 -12.561,-12.562c-0,-6.938 5.624,-12.562 12.561,-12.562c6.938,0 12.562,5.624 12.562,12.562c0,6.937 -5.624,12.562 -12.562,12.562Zm-7.807,-60.875c-55.102,-9.776 -27.643,116.134 0.426,154.446c0.987,-0.503 1.96,-1.014 2.921,-1.532c0.433,-0.234 0.853,-0.474 1.279,-0.711c0.544,-0.301 1.091,-0.599 1.625,-0.906c0.453,-0.258 0.893,-0.523 1.337,-0.785c0.494,-0.29 0.99,-0.579 1.475,-0.874c0.444,-0.27 0.876,-0.543 1.313,-0.817c0.471,-0.293 0.942,-0.587 1.404,-0.885c0.428,-0.276 0.847,-0.557 1.268,-0.836c0.45,-0.299 0.902,-0.599 1.343,-0.902c0.41,-0.282 0.811,-0.566 1.213,-0.851c0.435,-0.307 0.867,-0.614 1.291,-0.924c0.389,-0.286 0.77,-0.572 1.15,-0.859c0.416,-0.314 0.83,-0.63 1.236,-0.947c0.368,-0.288 0.73,-0.577 1.088,-0.867c0.397,-0.322 0.79,-0.645 1.175,-0.969c0.345,-0.289 0.685,-0.579 1.019,-0.869c0.381,-0.331 0.752,-0.663 1.12,-0.994c0.318,-0.289 0.634,-0.578 0.943,-0.866c0.362,-0.34 0.712,-0.681 1.06,-1.021c0.293,-0.287 0.585,-0.574 0.868,-0.862c0.341,-0.348 0.667,-0.697 0.994,-1.046c0.265,-0.284 0.533,-0.568 0.788,-0.853c0.323,-0.36 0.628,-0.722 0.934,-1.084c0.234,-0.275 0.473,-0.55 0.697,-0.826c0.309,-0.381 0.596,-0.764 0.888,-1.147c0.194,-0.259 0.399,-0.516 0.587,-0.774c0.308,-0.424 0.589,-0.851 0.872,-1.277c0.145,-0.217 0.302,-0.434 0.44,-0.65c0.408,-0.644 0.791,-1.288 1.142,-1.932c0.185,-0.338 0.385,-0.681 0.596,-1.028c0.072,-0.119 0.154,-0.24 0.23,-0.359c0.145,-0.231 0.288,-0.461 0.444,-0.695c0.097,-0.143 0.202,-0.29 0.302,-0.435c0.148,-0.213 0.293,-0.426 0.45,-0.643c0.112,-0.155 0.233,-0.312 0.349,-0.467c0.157,-0.211 0.311,-0.421 0.477,-0.635c0.125,-0.161 0.258,-0.325 0.389,-0.488c0.167,-0.211 0.332,-0.422 0.508,-0.634c0.135,-0.166 0.279,-0.334 0.419,-0.501c0.181,-0.213 0.359,-0.427 0.546,-0.641c0.147,-0.17 0.299,-0.34 0.449,-0.51c0.191,-0.218 0.384,-0.435 0.583,-0.654c0.153,-0.169 0.312,-0.339 0.47,-0.51c0.207,-0.223 0.413,-0.446 0.625,-0.671c0.159,-0.168 0.322,-0.336 0.484,-0.505c0.222,-0.231 0.446,-0.463 0.675,-0.697c0.162,-0.163 0.327,-0.329 0.492,-0.494c0.238,-0.239 0.478,-0.478 0.722,-0.719c0.165,-0.162 0.333,-0.324 0.5,-0.487c0.255,-0.247 0.512,-0.495 0.774,-0.745c0.164,-0.155 0.33,-0.312 0.496,-0.469c0.275,-0.259 0.553,-0.519 0.833,-0.779c0.161,-0.148 0.322,-0.296 0.484,-0.445c0.298,-0.272 0.599,-0.546 0.903,-0.82c0.15,-0.135 0.301,-0.27 0.452,-0.406c0.327,-0.292 0.659,-0.586 0.992,-0.879c0.136,-0.119 0.27,-0.238 0.407,-0.356c0.357,-0.313 0.719,-0.625 1.083,-0.939c0.119,-0.102 0.239,-0.205 0.358,-0.306c0.395,-0.338 0.793,-0.676 1.195,-1.014l0.276,-0.231c0.44,-0.369 0.884,-0.737 1.332,-1.106l0.175,-0.145c0.494,-0.405 0.991,-0.811 1.493,-1.217l0.045,-0.036c7.478,-6.039 15.941,-12.132 23.991,-17.626l-0.001,-0.003c-9.048,-25.373 -33.354,-79.206 -78.894,-87.285Z" style="fill:#068b83;fill-rule:nonzero;"/><path d="M136.737,198.046c-6.937,0 -12.561,5.624 -12.561,12.562c0,6.937 5.624,12.562 12.561,12.562c6.938,-0 12.562,-5.625 12.562,-12.562c-0,-6.938 -5.624,-12.562 -12.562,-12.562Z" style="fill:#004944;fill-rule:nonzero;"/><path d="M271.048,198.046c-6.937,0 -12.561,5.624 -12.561,12.562c-0,6.937 5.624,12.562 12.561,12.562c6.938,-0 12.562,-5.625 12.562,-12.562c0,-6.938 -5.624,-12.562 -12.562,-12.562Z" style="fill:#004944;fill-rule:nonzero;"/><path d="M198.579,265.685c-32.868,0 -28.022,29.954 0.966,28.988c28.988,-0.966 30.92,-28.988 -0.966,-28.988Z" style="fill:#004944;fill-rule:nonzero;"/><path d="M101.952,131.374c0,0 -1.465,-1.432 -4.083,-3.659c-11.985,-10.198 -48.259,-37.152 -79.982,-20.498c-0,0 11.595,13.529 9.662,27.056c-1.719,12.031 3.454,38.571 22.29,51.096c2.343,1.559 4.885,2.912 7.664,3.981l44.449,-57.976Z" style="fill:#88d1cc;fill-rule:nonzero;"/></g><path d="M311.014,129.279c-1.475,1.309 -2.282,2.095 -2.282,2.095l44.449,57.976c1.843,-0.708 3.576,-1.55 5.225,-2.483c20.831,-11.773 26.52,-40.059 24.729,-52.594c-1.932,-13.527 9.663,-27.056 9.663,-27.056c-33.525,-17.6 -72.132,13.502 -81.784,22.062Z" style="fill:#88d1cc;fill-rule:nonzero;"/></g></svg>