<?xml version="1.0" encoding="UTF-8" standalone="no"?><!DOCTYPE svg PUBLIC "-//W3C//DTD SVG 1.1//EN" "http://www.w3.org/Graphics/SVG/1.1/DTD/svg11.dtd"><svg width="100%" height="100%" viewBox="0 0 417 417" version="1.1" xmlns="http://www.w3.org/2000/svg" xmlns:xlink="http://www.w3.org/1999/xlink" xml:space="preserve" xmlns:serif="http://www.serif.com/" style="fill-rule:evenodd;clip-rule:evenodd;stroke-linejoin:round;stroke-miterlimit:2;"><rect id="Artboard1" x="0" y="0" width="416.667" height="416.667" style="fill:none;"/><g><path d="M362.614,208.333c0,87.246 -70.725,157.971 -157.97,157.971c-87.246,0 -157.973,-70.725 -157.973,-157.971c0,-87.245 70.727,-157.971 157.973,-157.971c87.245,0 157.97,70.726 157.97,157.971Z" style="fill:#f9c2c6;fill-rule:nonzero;"/><path d="M290.357,248.234c-12.076,16.192 -94.477,-50.599 -61.429,-88.353c19.707,-22.514 96.988,11.857 108.238,41.888c11.249,30.031 -34.733,30.274 -46.809,46.465Zm-35.586,57.525c-19.326,14.494 -99.525,15.461 -103.391,-13.527c-3.865,-28.988 14.752,-64.924 49.28,-69.571c50.245,-6.764 73.436,68.604 54.111,83.098Zm-130.948,-57.525c-12.076,-16.191 -58.059,-16.434 -46.808,-46.465c11.25,-30.031 88.53,-64.402 108.237,-41.888c33.049,37.754 -49.353,104.545 -61.429,88.353Zm179.148,-125.098c0,-0 1.141,-0.677 3.141,-1.81c-26.5,-19.886 -60.597,-33.803 -102.554,-32.01c-40.386,1.726 -71.676,13.547 -95.97,30.346c3.81,2.112 6.108,3.474 6.108,3.474l-57.011,60.874c-0.975,-0.894 -2.041,-2.241 -3.159,-3.945c-7.825,13.722 -13.686,27.387 -18.099,39.697c0,-0 35.752,19.325 57.977,50.245c22.224,30.921 67.432,63.107 112.086,60.876c38.651,-1.933 82.133,-23.192 93.728,-44.449c11.595,-21.258 77.302,-59.909 77.302,-59.909c-1.11,-9.435 -6.532,-25.169 -16.365,-42.687l-0.174,0.172l-57.01,-60.874Z" style="fill:#f16667;fill-rule:nonzero;"/><path d="M205.49,265.176c-28.987,0.967 -33.832,-28.988 -0.965,-28.988c31.886,-0 29.954,28.021 0.965,28.988Zm-4.83,-42.515c-34.528,4.647 -53.145,40.583 -49.28,69.571c3.866,28.988 84.065,28.021 103.391,13.527c19.325,-14.494 -3.866,-89.862 -54.111,-83.098Z" style="fill:#fffabc;fill-rule:nonzero;"/><path d="M150.414,204.302c-6.938,-0 -12.561,-5.625 -12.561,-12.562c-0,-6.938 5.623,-12.562 12.561,-12.562c6.937,0 12.561,5.624 12.561,12.562c-0,6.937 -5.624,12.562 -12.561,12.562Zm34.838,-44.421c-19.707,-22.514 -96.987,11.857 -108.237,41.888c-11.251,30.031 34.732,30.274 46.808,46.465c12.076,16.192 94.478,-50.599 61.429,-88.353Z" style="fill:#ba3027;fill-rule:nonzero;"/><path d="M265.399,204.302c-6.938,-0 -12.561,-5.625 -12.561,-12.562c0,-6.938 5.623,-12.562 12.561,-12.562c6.938,0 12.562,5.624 12.562,12.562c-0,6.937 -5.624,12.562 -12.562,12.562Zm-36.471,-44.421c-33.048,37.754 49.353,104.545 61.429,88.353c12.076,-16.191 58.058,-16.434 46.809,-46.465c-11.25,-30.031 -88.531,-64.402 -108.238,-41.888Z" style="fill:#ba3027;fill-rule:nonzero;"/><path d="M265.399,179.178c-6.938,0 -12.561,5.624 -12.561,12.562c0,6.937 5.623,12.562 12.561,12.562c6.938,-0 12.562,-5.625 12.562,-12.562c-0,-6.938 -5.624,-12.562 -12.562,-12.562Z" style="fill:#5e0500;fill-rule:nonzero;"/><path d="M150.414,179.178c-6.938,0 -12.561,5.624 -12.561,12.562c-0,6.937 5.623,12.562 12.561,12.562c6.937,-0 12.561,-5.625 12.561,-12.562c-0,-6.938 -5.624,-12.562 -12.561,-12.562Z" style="fill:#5e0500;fill-rule:nonzero;"/><path d="M204.525,236.188c-32.867,-0 -28.022,29.955 0.965,28.988c28.989,-0.967 30.921,-28.988 -0.965,-28.988Z" style="fill:#5e0500;fill-rule:nonzero;"/><path d="M53.787,115.405c6.764,-4.831 35.752,13.527 35.752,13.527c-10.628,9.663 -28.023,30.921 -28.023,30.921c0,-0 -14.494,-39.616 -7.729,-44.448Zm59.909,7.731c-0,-0 -2.298,-1.362 -6.108,-3.474c-14.369,-7.962 -50.324,-26.637 -66.362,-23.582c-18.586,3.539 0.114,65.431 12.3,83.985c1.118,1.704 2.184,3.051 3.159,3.945l57.011,-60.874Z" style="fill:#f16667;fill-rule:nonzero;"/><path d="M89.539,128.932c0,0 -28.988,-18.358 -35.752,-13.527c-6.765,4.832 7.729,44.448 7.729,44.448c0,-0 17.395,-21.258 28.023,-30.921Z" style="fill:#ba3027;fill-rule:nonzero;"/><path d="M355.149,159.853c0,-0 -17.392,-21.258 -28.021,-30.921c-0,0 28.988,-18.358 35.752,-13.527c6.763,4.832 -7.731,44.448 -7.731,44.448Zm20.292,-63.773c-17.3,-3.295 -57.77,18.69 -69.329,25.246c-2,1.133 -3.141,1.81 -3.141,1.81l57.01,60.874l0.174,-0.172c11.661,-11.191 35.477,-83.913 15.286,-87.758Z" style="fill:#f16667;fill-rule:nonzero;"/><path d="M362.88,115.405c-6.764,-4.831 -35.752,13.527 -35.752,13.527c10.629,9.663 28.021,30.921 28.021,30.921c0,-0 14.494,-39.616 7.731,-44.448Z" style="fill:#ba3027;fill-rule:nonzero;"/></g></svg>