<?xml version="1.0" encoding="UTF-8" standalone="no"?><!DOCTYPE svg PUBLIC "-//W3C//DTD SVG 1.1//EN" "http://www.w3.org/Graphics/SVG/1.1/DTD/svg11.dtd"><svg width="100%" height="100%" viewBox="0 0 417 417" version="1.1" xmlns="http://www.w3.org/2000/svg" xmlns:xlink="http://www.w3.org/1999/xlink" xml:space="preserve" xmlns:serif="http://www.serif.com/" style="fill-rule:evenodd;clip-rule:evenodd;stroke-linejoin:round;stroke-miterlimit:2;"><rect id="Artboard1" x="-0" y="0" width="416.667" height="416.667" style="fill:none;"/><g><path d="M364.635,208.333c-0,87.246 -70.726,157.971 -157.971,157.971c-87.246,0 -157.972,-70.725 -157.972,-157.971c0,-87.245 70.726,-157.971 157.972,-157.971c87.245,0 157.971,70.726 157.971,157.971Z" style="fill:#e2e3e4;fill-rule:nonzero;"/><path d="M267.025,250.958c-15.007,0.714 -21.389,-17.351 -35.73,-27.15c2.654,8.006 -5.039,17.619 -21.811,18.178c-16.65,0.555 -25.313,-9.089 -23.462,-17.4c-16.811,9.641 -26.326,26.189 -41.686,28.383c-21.118,3.017 -67.378,-18.102 -63.356,-50.282c4.023,-32.181 37.255,-53.876 121.684,-57.322c49.277,-2.012 122.69,19.107 124.701,56.316c2.012,37.209 -39.22,48.271 -60.34,49.277Zm32.919,-127.493c0,-0 2.147,-0.986 5.741,-2.551c-26.421,-19.665 -60.334,-33.379 -101.999,-31.598c-40.31,1.723 -71.558,13.501 -95.831,30.249c5.448,2.33 8.867,3.9 8.867,3.9l-59.246,62.477c-0,0 -1.248,-2.642 -3.185,-6.99c-8.146,14.094 -14.203,28.168 -18.736,40.81c0,-0 35.752,19.325 57.977,50.245c22.224,30.921 67.432,63.107 112.086,60.876c38.651,-1.933 82.133,-23.192 93.728,-44.449c11.595,-21.258 77.301,-59.909 77.301,-59.909c-1.112,-9.455 -6.556,-25.238 -16.428,-42.801c-0.652,1.421 -1.028,2.218 -1.028,2.218l-59.247,-62.477Z" style="fill:#a7a9ac;fill-rule:nonzero;"/><path d="M275.19,212.998c-6.937,-0 -12.562,-5.624 -12.562,-12.562c-0,-6.937 5.625,-12.562 12.562,-12.562c6.937,0 12.561,5.625 12.561,12.562c0,6.938 -5.624,12.562 -12.561,12.562Zm-140.108,-0c-6.939,-0 -12.562,-5.624 -12.562,-12.562c-0,-6.937 5.623,-12.562 12.562,-12.562c6.936,0 12.56,5.625 12.56,12.562c0,6.938 -5.624,12.562 -12.56,12.562Zm67.582,-67.633c-84.429,3.446 -117.661,25.141 -121.684,57.322c-4.022,32.18 42.238,53.299 63.356,50.282c15.36,-2.194 24.875,-18.742 41.686,-28.383c1.371,-6.159 8.506,-11.588 22.495,-11.588c13.437,-0 20.846,4.98 22.778,10.81c14.341,9.799 20.723,27.864 35.73,27.15c21.12,-1.006 62.352,-12.068 60.34,-49.277c-2.011,-37.209 -75.424,-58.328 -124.701,-56.316Z" style="fill:#6d6f71;fill-rule:nonzero;"/><path d="M135.082,187.874c-6.939,0 -12.562,5.625 -12.562,12.562c-0,6.938 5.623,12.562 12.562,12.562c6.936,-0 12.56,-5.624 12.56,-12.562c0,-6.937 -5.624,-12.562 -12.56,-12.562Z" style="fill:#414042;fill-rule:nonzero;"/><path d="M275.19,187.874c-6.937,0 -12.562,5.625 -12.562,12.562c-0,6.938 5.625,12.562 12.562,12.562c6.937,-0 12.561,-5.624 12.561,-12.562c0,-6.937 -5.624,-12.562 -12.561,-12.562Z" style="fill:#414042;fill-rule:nonzero;"/><path d="M208.517,212.998c-13.989,-0 -21.124,5.429 -22.495,11.588c-1.851,8.311 6.812,17.955 23.462,17.4c16.772,-0.559 24.465,-10.172 21.811,-18.178c-1.932,-5.83 -9.341,-10.81 -22.778,-10.81Z" style="fill:#414042;fill-rule:nonzero;"/><path d="M51.016,115.405c5.798,-3.864 35.752,14.494 35.752,14.494c-6.764,4.832 -27.056,29.954 -27.056,29.954c0,-0 -14.494,-40.583 -8.696,-44.448Zm65.706,8.06c-0,-0 -3.419,-1.57 -8.867,-3.9c-18.46,-7.892 -60.28,-24.545 -71.924,-18.722c-12.301,6.149 9.794,58.873 18.36,78.109c1.937,4.348 3.185,6.99 3.185,6.99l59.246,-62.477Z" style="fill:#a7a9ac;fill-rule:nonzero;"/><path d="M86.768,129.899c-0,0 -29.954,-18.358 -35.752,-14.494c-5.798,3.865 8.696,44.448 8.696,44.448c0,-0 20.292,-25.122 27.056,-29.954Z" style="fill:#6d6f71;fill-rule:nonzero;"/><path d="M356.954,159.853c-0,-0 -20.291,-25.122 -27.056,-29.954c-0,0 29.955,-18.358 35.752,-14.494c5.798,3.865 -8.696,44.448 -8.696,44.448Zm23.782,-59.01c-12.362,-6.18 -58.723,12.962 -75.051,20.071c-3.594,1.565 -5.741,2.551 -5.741,2.551l59.247,62.477c0,0 0.376,-0.797 1.028,-2.218c5.826,-12.697 34.079,-76.1 20.517,-82.881Z" style="fill:#a7a9ac;fill-rule:nonzero;"/><path d="M365.65,115.405c-5.797,-3.864 -35.752,14.494 -35.752,14.494c6.765,4.832 27.056,29.954 27.056,29.954c-0,-0 14.494,-40.583 8.696,-44.448Z" style="fill:#6d6f71;fill-rule:nonzero;"/></g></svg>