<?xml version="1.0" encoding="UTF-8" standalone="no"?><!DOCTYPE svg PUBLIC "-//W3C//DTD SVG 1.1//EN" "http://www.w3.org/Graphics/SVG/1.1/DTD/svg11.dtd"><svg width="100%" height="100%" viewBox="0 0 417 417" version="1.1" xmlns="http://www.w3.org/2000/svg" xmlns:xlink="http://www.w3.org/1999/xlink" xml:space="preserve" xmlns:serif="http://www.serif.com/" style="fill-rule:evenodd;clip-rule:evenodd;stroke-linejoin:round;stroke-miterlimit:2;"><rect id="Artboard1" x="-0" y="0" width="416.667" height="416.667" style="fill:none;"/><g><path d="M368.162,208.333c-0,87.245 -70.726,157.971 -157.971,157.971c-87.246,0 -157.971,-70.726 -157.971,-157.971c-0,-87.245 70.725,-157.971 157.971,-157.971c87.245,0 157.971,70.726 157.971,157.971Z" style="fill:#ffe278;fill-rule:nonzero;"/><path d="M378.877,228.967c0,-0 -0.376,0.224 -1.071,0.64c0.695,-0.416 1.071,-0.64 1.071,-0.64Z" style="fill:#fffabc;fill-rule:nonzero;"/><path d="M285.153,215.44c-6.937,-0 -12.562,-5.624 -12.562,-12.562c0,-6.937 5.625,-12.561 12.562,-12.561c6.938,0 12.562,5.624 12.562,12.561c-0,6.938 -5.624,12.562 -12.562,12.562Zm-144.94,-0c-6.938,-0 -12.561,-5.624 -12.561,-12.562c-0,-6.937 5.623,-12.561 12.561,-12.561c6.937,0 12.562,5.624 12.562,12.561c0,6.938 -5.625,12.562 -12.562,12.562Zm143.974,-67.639c-45.45,1.715 -53.607,65.83 -54.867,97.124c3.248,1.461 5.592,3.367 6.412,5.677c3.937,11.076 -15.297,24.318 -24.64,26.964c-9.344,2.646 -31.531,-18.555 -26.352,-26.713c1.576,-2.484 4.21,-4.434 7.475,-5.892c3.074,-32.751 -13.602,-132.877 -64.563,-101.025c-37.423,23.388 -56.813,68.946 -65.219,94.831l-0.072,-0.054c10.916,8.49 23.5,19.958 33.405,33.736c22.223,30.92 67.431,63.107 112.086,60.875c38.65,-1.933 82.132,-23.191 93.727,-44.449c6.578,-12.058 30.562,-29.709 50.089,-42.731c-9.937,-37.894 -27.542,-99.85 -67.481,-98.343Z" style="fill:#fffabc;fill-rule:nonzero;"/><path d="M37.967,222.301c0.076,0.041 0.17,0.094 0.295,0.164l0.09,0.051c0.144,0.08 0.31,0.174 0.507,0.286l0.095,0.055c0.215,0.122 0.455,0.261 0.723,0.417l0.099,0.056c0.285,0.168 0.599,0.352 0.941,0.553l0.08,0.047c3.027,1.797 8.121,4.961 14.244,9.331l0.137,0.096c0.711,0.508 1.436,1.033 2.171,1.573l0.209,0.152c0.731,0.538 1.474,1.089 2.226,1.656l0.197,0.15c0.784,0.592 1.577,1.2 2.38,1.825l0.072,0.054c8.406,-25.885 27.796,-71.443 65.219,-94.831c50.961,-31.852 67.637,68.274 64.563,101.025c10.551,-4.712 27.686,-4.271 37.105,-0.036c1.26,-31.294 9.417,-95.409 54.867,-97.124c39.939,-1.507 57.544,60.449 67.481,98.343c11.578,-7.72 21.599,-13.812 25.477,-16.146l0.083,-0.044l0.176,-0.107l0.294,-0.175l0.108,-0.065c0.695,-0.416 1.071,-0.64 1.071,-0.64c-1.378,-11.772 -9.465,-33.345 -24.474,-55.962c-0.86,0.664 -1.756,1.285 -2.699,1.851l-61.837,-55.077c0,0 1.431,-2.238 4.262,-5.685c-21.619,-13.025 -47.448,-21.841 -77.601,-22.455c-1.769,-0.036 -3.552,-0.046 -5.351,-0.025c-1.739,0.02 -3.491,0.068 -5.258,0.144c-27.091,1.157 -50.086,6.862 -69.627,15.56c1.321,1.754 1.989,2.798 1.989,2.798l-61.841,55.078c-2.201,-1.334 -4.202,-2.957 -6.031,-4.807c-10.623,14.074 -18.754,28.857 -25.008,42.854c-0.603,1.346 -1.192,2.687 -1.759,4.017c-0.514,1.206 -1.01,2.401 -1.496,3.592c-0.551,1.345 -1.09,2.683 -1.606,4.006c-0.975,2.495 -1.89,4.947 -2.751,7.347l0.112,0.061l0.066,0.037Z" style="fill:#febd45;fill-rule:nonzero;"/><path d="M73.541,86.926c23.19,3.865 45.415,21.258 45.415,21.258c-15.461,10.628 -37.684,32.853 -37.684,32.853c-19.326,-28.988 -7.731,-54.111 -7.731,-54.111Zm64.74,23.19c0,0 -0.668,-1.044 -1.989,-2.798c-7.406,-9.842 -35.478,-42.176 -83.043,-39.717c-0,-0 -7.53,67.83 17.16,92.786c1.829,1.85 3.83,3.473 6.031,4.807l61.841,-55.078Z" style="fill:#febd45;fill-rule:nonzero;"/><path d="M118.956,108.184c-0,0 -22.225,-17.393 -45.415,-21.258c0,0 -11.595,25.123 7.731,54.111c-0,-0 22.223,-22.225 37.684,-32.853Z" style="fill:#fffabc;fill-rule:nonzero;"/><path d="M354.604,96.589c-0,0 11.601,25.122 -7.722,54.111c-0,-0 -22.229,-22.225 -37.689,-32.853c-0,-0 22.223,-17.393 45.411,-21.258Zm-2.9,78.267c0.943,-0.566 1.839,-1.187 2.699,-1.851c28.684,-21.995 20.491,-95.741 20.491,-95.741c-43.605,-2.256 -70.83,24.74 -80.765,36.83c-2.831,3.447 -4.262,5.685 -4.262,5.685l61.837,55.077Z" style="fill:#febd45;fill-rule:nonzero;"/><path d="M354.604,96.589c-23.188,3.865 -45.411,21.258 -45.411,21.258c15.46,10.628 37.689,32.853 37.689,32.853c19.323,-28.989 7.722,-54.111 7.722,-54.111Z" style="fill:#fffabc;fill-rule:nonzero;"/><path d="M140.213,190.317c-6.938,0 -12.561,5.624 -12.561,12.561c-0,6.938 5.623,12.562 12.561,12.562c6.937,-0 12.562,-5.624 12.562,-12.562c0,-6.937 -5.625,-12.561 -12.562,-12.561Z" style="fill:#783b0a;fill-rule:nonzero;"/><path d="M285.153,190.317c-6.937,0 -12.562,5.624 -12.562,12.561c0,6.938 5.625,12.562 12.562,12.562c6.938,-0 12.562,-5.624 12.562,-12.562c-0,-6.937 -5.624,-12.561 -12.562,-12.561Z" style="fill:#783b0a;fill-rule:nonzero;"/><path d="M184.74,250.853c-5.179,8.158 17.008,29.359 26.352,26.713c9.343,-2.646 28.577,-15.888 24.64,-26.964c-0.82,-2.31 -3.164,-4.216 -6.412,-5.677c-9.419,-4.235 -26.554,-4.676 -37.105,0.036c-3.265,1.458 -5.899,3.408 -7.475,5.892Z" style="fill:#783b0a;fill-rule:nonzero;"/></g></svg>